<?xml version="1.0" encoding="UTF-8"?>
<svg width="24px" height="24px" viewBox="0 0 24 24" version="1.1" xmlns="http://www.w3.org/2000/svg" xmlns:xlink="http://www.w3.org/1999/xlink">
    <title>ic_public_albums_10</title>
    <g id="ic_public_albums_10" stroke="none" stroke-width="1" fill="none" fill-rule="evenodd">
        <path d="M16.590287,2.5 C18.8190838,2.5 19.6272994,2.73206403 20.4421143,3.16783176 C21.2569291,3.60359949 21.8964005,4.24307093 22.3321682,5.05788574 C22.767936,5.87270056 23,6.68091615 23,8.909713 L23,13.804662 C23,15.5876995 22.8143488,16.234272 22.4657346,16.8861238 C22.2201431,17.34534 21.8936745,17.7349391 21.4942613,18.0469886 C21.4957588,17.9673547 21.4974245,17.8843317 21.4985008,17.7985782 L21.5,17.5502309 L21.5,9.01733666 L21.4985008,8.76898935 C21.4828731,7.5238355 21.3429795,6.85435009 20.9811141,6.15943347 C20.6264537,5.47835293 20.1000248,4.9376962 19.4368674,4.57345034 C18.7384113,4.1898163 18.0663405,4.0490982 16.7768869,4.04092211 L4.8458278,4.04054054 C4.67164175,4.04054054 4.50841225,4.04275922 4.35468879,4.04744528 C4.67147849,3.628281 5.0717147,3.288081 5.54630859,3.03426541 C6.19816044,2.68565122 6.84473292,2.5 8.6277704,2.5 L16.590287,2.5 Z" id="形状结合" fill-opacity="0.4" fill="#000000"></path>
        <path d="M5.4867991,5.06756757 L16.0132009,5.06756757 C17.5733587,5.06756757 18.1391096,5.23001239 18.70948,5.5350498 C19.2798504,5.84008721 19.7274804,6.28771722 20.0325178,6.85808759 C20.3375552,7.42845796 20.5,7.99420887 20.5,9.55436667 L20.5,17.0132009 C20.5,18.5733587 20.3375552,19.1391096 20.0325178,19.70948 C19.7274804,20.2798504 19.2798504,20.7274804 18.70948,21.0325178 C18.1391096,21.3375552 17.5733587,21.5 16.0132009,21.5 L5.4867991,21.5 C3.92664131,21.5 3.36089039,21.3375552 2.79052002,21.0325178 C2.22014965,20.7274804 1.77251964,20.2798504 1.46748223,19.70948 C1.16244482,19.1391096 1,18.5733587 1,17.0132009 L1,9.55436667 C1,7.99420887 1.16244482,7.42845796 1.46748223,6.85808759 C1.77251964,6.28771722 2.22014965,5.84008721 2.79052002,5.5350498 C3.36089039,5.23001239 3.92664131,5.06756757 5.4867991,5.06756757 Z" id="Rectangle-9" fill-opacity="0.2" fill="#000000"></path>
    </g>
</svg>