<?xml version="1.0" encoding="UTF-8"?>
<svg width="24px" height="24px" viewBox="0 0 24 24" version="1.1" xmlns="http://www.w3.org/2000/svg" xmlns:xlink="http://www.w3.org/1999/xlink">
    <title>ic_gallery_photo</title>
    <g id="ic_gallery_photo" stroke="none" stroke-width="1" fill="none" fill-rule="evenodd">
        <path d="M7.1277704,2 L17.144484,2.0015395 L17.144484,2.0015395 L17.6363219,2.01379596 C18.5537651,2.05046611 19.0897919,2.15976206 19.5320441,2.33596793 L19.7466873,2.42962023 C19.8165179,2.46267863 19.8850754,2.49756918 19.9536914,2.53426541 C20.6055433,2.88287959 21.1171204,3.39445674 21.4657346,4.04630859 C21.5024308,4.11492458 21.5373214,4.18348206 21.5703798,4.25331273 L21.6640321,4.46795593 C21.8402379,4.91020809 21.9495339,5.44623491 21.986204,6.36367807 L21.9984605,6.85551601 C21.9994857,6.94323035 22,7.03392632 22,7.1277704 L22,16.8722296 L21.9984605,17.144484 L21.9984605,17.144484 L21.986204,17.6363219 C21.9495339,18.5537651 21.8402379,19.0897919 21.6640321,19.5320441 L21.5703798,19.7466873 C21.5373214,19.8165179 21.5024308,19.8850754 21.4657346,19.9536914 C21.1171204,20.6055433 20.6055433,21.1171204 19.9536914,21.4657346 C19.8850754,21.5024308 19.8165179,21.5373214 19.7466873,21.5703798 L19.5320441,21.6640321 C19.0897919,21.8402379 18.5537651,21.9495339 17.6363219,21.986204 L17.144484,21.9984605 C17.0567697,21.9994857 16.9660737,22 16.8722296,22 L7.1277704,22 L6.85551601,21.9984605 L6.85551601,21.9984605 L6.36367807,21.986204 C5.44623491,21.9495339 4.91020809,21.8402379 4.46795593,21.6640321 L4.25331273,21.5703798 C4.18348206,21.5373214 4.11492458,21.5024308 4.04630859,21.4657346 C3.39445674,21.1171204 2.88287959,20.6055433 2.53426541,19.9536914 C2.49756918,19.8850754 2.46267863,19.8165179 2.42962023,19.7466873 L2.33596793,19.5320441 C2.15976206,19.0897919 2.05046611,18.5537651 2.01379596,17.6363219 L2.0015395,17.144484 C2.00051427,17.0567697 2,16.9660737 2,16.8722296 L2.0015395,6.85551601 L2.0015395,6.85551601 L2.01379596,6.36367807 C2.05046611,5.44623491 2.15976206,4.91020809 2.33596793,4.46795593 L2.42962023,4.25331273 C2.46267863,4.18348206 2.49756918,4.11492458 2.53426541,4.04630859 C2.88287959,3.39445674 3.39445674,2.88287959 4.04630859,2.53426541 C4.11492458,2.49756918 4.18348206,2.46267863 4.25331273,2.42962023 L4.46795593,2.33596793 C4.91020809,2.15976206 5.44623491,2.05046611 6.36367807,2.01379596 L6.85551601,2.0015395 C6.94323035,2.00051427 7.03392632,2 7.1277704,2 Z" id="路径" fill-opacity="0.2" fill="#000000"></path>
        <path d="M17.5863647,11.830408 C17.9278857,11.9339218 18.2139555,12.0894067 18.8006866,12.6674148 L20.3533478,14.2198191 C20.4471216,14.3135774 20.4998237,14.4407465 20.4998237,14.5733517 L20.4984379,16.5799462 L20.4860088,17.0194859 C20.4488341,17.8324571 20.3381205,18.2669066 20.1603517,18.6491137 L20.0659094,18.8373743 C19.7826603,19.3670039 19.3670039,19.7826603 18.8373743,20.0659094 L18.757846,20.1074014 C18.2529022,20.3638654 17.7099686,20.5 16.3336866,20.5 L7.66631345,20.5 L7.20797976,20.4942144 L6.76997214,20.4741894 C5.96518516,20.4199694 5.56514425,20.2811786 5.16262573,20.0659094 C4.6329961,19.7826603 4.21733967,19.3670039 3.93409064,18.8373743 L3.84897594,18.6612512 C3.83296011,18.6256467 3.81602925,18.5869169 3.79818336,18.5450618 C3.75805942,18.4511841 3.77912161,18.3423608 3.85131193,18.27017 L6.68705939,15.4344051 C7.12348943,14.997975 7.39879972,14.7855837 7.64427199,14.6606258 L7.80494041,14.5887747 C7.85798352,14.5681426 7.91099383,14.5503291 7.96541201,14.5338352 C8.31913016,14.4266244 8.68086984,14.4266244 9.03458799,14.5338352 L9.1070521,14.5569472 L9.17859739,14.5824604 C9.46397916,14.6903961 9.74599755,14.8754064 10.2489099,15.370842 L10.3632243,15.4851003 C10.9493275,16.070348 11.898856,16.0702419 12.4848285,15.4848634 L15.2388361,12.730978 C15.869235,12.100579 16.1634705,11.9376187 16.5171887,11.830408 C16.8709069,11.7231973 17.2326465,11.7231973 17.5863647,11.830408 Z M8.25,7.25 C9.21649831,7.25 10,8.03350169 10,9 C10,9.96649831 9.21649831,10.75 8.25,10.75 C7.28350169,10.75 6.5,9.96649831 6.5,9 C6.5,8.03350169 7.28350169,7.25 8.25,7.25 Z" id="形状结合" fill-opacity="0.25" fill="#000000"></path>
    </g>
</svg>