<svg width="16.000000" height="16.000000" viewBox="0 0 16 16" fill="none" xmlns="http://www.w3.org/2000/svg" xmlns:xlink="http://www.w3.org/1999/xlink">
	<desc>
			Created with Pixso.
	</desc>
	<defs>
		<clipPath id="clip1207_55475">
			<rect id="电影" width="16.000000" height="16.000000" fill="white" fill-opacity="0"/>
		</clipPath>
	</defs>
	<g clip-path="url(#clip1207_55475)">
		<g opacity="0.000000">
			<rect id="rect" width="16.000000" height="16.000000" fill="#707C90" fill-opacity="1.000000"/>
		</g>
		<path id="path" d="M4.39 4.39C3.75 5.04 3.3 5.81 3.07 6.7C2.83 7.59 2.83 8.47 3.07 9.35C3.3 10.24 3.75 11.01 4.39 11.66C5.06 12.32 5.83 12.76 6.71 13C7.6 13.23 8.48 13.23 9.35 13C10.23 12.76 11 12.32 11.66 11.66L4.39 4.39ZM12.48 12.48C11.67 13.28 10.72 13.83 9.63 14.12C8.54 14.4 7.45 14.4 6.36 14.12C5.27 13.83 4.32 13.28 3.51 12.48C2.71 11.67 2.16 10.72 1.87 9.63C1.59 8.54 1.59 7.45 1.87 6.36C2.16 5.27 2.71 4.32 3.51 3.51C4.32 2.71 5.27 2.16 6.36 1.88C7.45 1.59 8.54 1.59 9.63 1.88C10.72 2.16 11.67 2.71 12.48 3.51C13.28 4.32 13.83 5.27 14.11 6.36C14.4 7.45 14.4 8.54 14.11 9.63C13.83 10.72 13.28 11.67 12.48 12.48ZM13.18 13.18C14.12 12.24 14.75 11.14 15.08 9.88C15.41 8.62 15.41 7.37 15.08 6.11C14.75 4.85 14.12 3.75 13.18 2.81C12.24 1.87 11.14 1.24 9.88 0.91C8.62 0.57 7.37 0.57 6.11 0.91C4.85 1.24 3.75 1.87 2.81 2.81C1.87 3.75 1.24 4.85 0.91 6.11C0.57 7.37 0.57 8.62 0.91 9.88C1.24 11.14 1.87 12.24 2.81 13.18C3.75 14.12 4.85 14.75 6.11 15.08C7.37 15.42 8.62 15.42 9.88 15.08C11.14 14.75 12.24 14.12 13.18 13.18ZM3.48 2.78L2.75 3.45L12.41 13.12L13.13 12.43L3.48 2.78Z" fill="#E58787" fill-opacity="1.000000" fill-rule="nonzero"/>
	</g>
</svg>
