<?xml version="1.0" encoding="utf-8"?>
<!-- Generator: Adobe Illustrator 26.3.1, SVG Export Plug-In . SVG Version: 6.00 Build 0)  -->
<svg version="1.1" id="图层_1" xmlns="http://www.w3.org/2000/svg" xmlns:xlink="http://www.w3.org/1999/xlink" x="0px" y="0px"
	 viewBox="0 0 24 24" style="enable-background:new 0 0 24 24;" xml:space="preserve">
<style type="text/css">
	.st0{fill-rule:evenodd;clip-rule:evenodd;}
</style>
<path id="path-1_00000181046445024263365090000011019624879362504891_" class="st0" d="M14.9,14.9c1.9-1,3.1-3,3.1-5.2
	c0-3.3-2.7-6-6-6s-6,2.7-6,6c0,2.2,1.2,4.2,3.1,5.2H14.9z M8.6,16.3C6.1,15,4.5,12.5,4.5,9.6c0-4.1,3.4-7.5,7.5-7.5s7.5,3.4,7.5,7.5
	c0,2.8-1.6,5.4-4.1,6.7c-0.1,0.1-0.2,0.1-0.3,0.1H8.9C8.8,16.4,8.7,16.3,8.6,16.3z M9,17.6h6c0.4,0,0.8,0.3,0.8,0.8
	s-0.3,0.8-0.8,0.8H9c-0.4,0-0.8-0.3-0.8-0.8S8.6,17.6,9,17.6z M9.8,20.4h4.5c0.4,0,0.8,0.3,0.8,0.8s-0.3,0.8-0.8,0.8H9.8
	c-0.4,0-0.8-0.3-0.8-0.8S9.3,20.4,9.8,20.4z"/>
</svg>
