<?xml version="1.0" encoding="utf-8"?>
<!-- Generator: Adobe Illustrator 26.3.1, SVG Export Plug-In . SVG Version: 6.00 Build 0)  -->
<svg version="1.1" id="图层_1" xmlns="http://www.w3.org/2000/svg" xmlns:xlink="http://www.w3.org/1999/xlink" x="0px" y="0px"
	 viewBox="0 0 24 24" style="enable-background:new 0 0 24 24;" xml:space="preserve">
<style type="text/css">
	.st0{fill-rule:evenodd;clip-rule:evenodd;}
</style>
<path id="path-1_00000168825696457495360790000001245707580369592240_" class="st0" d="M7.1,3.1c0.4,0.2,0.5,0.7,0.3,1l-2.6,6.6h5.7
	c0.8,0,1.3,0.9,0.9,1.6l-3,7l1.2,0.5c0.1,0.1,0.2,0.2,0.1,0.3c0,0.1-0.1,0.1-0.1,0.1l-2.8,1.4c-0.1,0.1-0.3,0-0.3-0.1c0,0,0,0,0,0
	l-1-3c0-0.1,0-0.3,0.2-0.3c0.1,0,0.1,0,0.2,0l1.2,0.5l2.7-6.5H4c-0.9,0-1.2-0.9-0.9-1.6l3-7.3C6.3,3,6.7,2.9,7.1,3.1z M18.5,18.9H15
	l-0.6,2.2h-1.6L15.9,11h1.6L21,21.1h-1.7L18.5,18.9z M15.4,17.5h2.7l-1.4-4.4L15.4,17.5z"/>
</svg>
