<?xml version="1.0" encoding="utf-8"?>
<!-- Generator: Adobe Illustrator 26.3.1, SVG Export Plug-In . SVG Version: 6.00 Build 0)  -->
<svg version="1.1" id="图层_1" xmlns="http://www.w3.org/2000/svg" xmlns:xlink="http://www.w3.org/1999/xlink" x="0px" y="0px"
	 viewBox="0 0 24 24" style="enable-background:new 0 0 24 24;" xml:space="preserve">
<path id="形状结合" d="M7.1,6.7l1.1,1.1C7.9,8.1,7.7,8.6,7.6,9C7.5,9.3,7.2,9.6,6.9,9.6c0,0-0.1,0-0.1,0l-0.2,0
	c-2.3,0.1-4,2-4,4.2c0,2.3,1.9,4.2,4.2,4.2l11.5,0l0.2,0l1.3,1.3c-0.3,0.1-0.6,0.2-1,0.2l-0.2,0l-0.2,0H6.8C3.6,19.6,1,17,1,13.8
	c0-3,2.3-5.5,5.3-5.7l0,0l0.1-0.2C6.6,7.5,6.8,7,7.1,6.7z M12.2,4c3.3,0,6,2.6,6.2,5.8l0,0.3l0.2,0c2.3,0.2,4.2,2.1,4.3,4.5l0,0.2
	c0,1.8-1,3.3-2.4,4.1l-1.1-1.1c1.2-0.5,2-1.7,2-3c0-1.8-1.5-3.2-3.2-3.2c-0.2,0-0.3,0-0.5,0c-0.5,0.1-0.9-0.3-0.9-0.8
	c0-0.2,0-0.3,0-0.5c0-2.6-2.1-4.8-4.8-4.8c-1.3,0-2.6,0.6-3.5,1.5L7.7,5.9C8.8,4.8,10.3,4.1,12,4L12.2,4z"/>
<path id="路径" d="M3.1,3.6c0.3-0.3,0.7-0.3,1,0l0,0l16.6,16.8c0.3,0.3,0.3,0.7,0,1c-0.3,0.3-0.7,0.3-1,0l0,0L3.1,4.6
	C2.8,4.3,2.8,3.9,3.1,3.6z"/>
</svg>
