<?xml version="1.0" encoding="utf-8"?>
<!-- Generator: Adobe Illustrator 26.3.1, SVG Export Plug-In . SVG Version: 6.00 Build 0)  -->
<svg version="1.1" id="图层_1" xmlns="http://www.w3.org/2000/svg" xmlns:xlink="http://www.w3.org/1999/xlink" x="0px" y="0px"
	 viewBox="0 0 24 24" style="enable-background:new 0 0 24 24;" xml:space="preserve">
<path id="形状结合" d="M12,4C9.5,4.1,7.3,5.7,6.4,7.9L6.3,8.1l0,0C3.3,8.3,1,10.8,1,13.8c0,3.2,2.6,5.8,5.8,5.8h11.5l0.2,0
	c2.5-0.1,4.5-2.2,4.5-4.7l0-0.2c-0.1-2.4-2-4.3-4.3-4.5l-0.2,0l0-0.3C18.2,6.6,15.5,4,12.2,4L12,4z M12.2,5.5c2.6,0,4.8,2.1,4.8,4.8
	c0,0.2,0,0.3,0,0.5c-0.1,0.5,0.4,0.9,0.9,0.8c0.1,0,0.3,0,0.5,0c1.8,0,3.2,1.5,3.2,3.2c0,1.7-1.4,3.2-3.1,3.2l-0.2,0l-11.5,0
	c-2.3,0-4.2-1.9-4.2-4.2c0-2.3,1.8-4.1,4-4.2l0.2,0c0,0,0.1,0,0.1,0c0.3,0,0.7-0.2,0.7-0.6C8.2,7,10,5.5,12.2,5.5z"/>
</svg>
