<?xml version="1.0" encoding="utf-8"?>
<!-- Generator: Adobe Illustrator 26.3.1, SVG Export Plug-In . SVG Version: 6.00 Build 0)  -->
<svg version="1.1" id="图层_1" xmlns="http://www.w3.org/2000/svg" xmlns:xlink="http://www.w3.org/1999/xlink" x="0px" y="0px"
	 viewBox="0 0 24 24" style="enable-background:new 0 0 24 24;" xml:space="preserve">
<style type="text/css">
	.st0{fill-rule:evenodd;clip-rule:evenodd;}
</style>
<path id="path-1_00000049921412491660247550000003320705385307369649_" class="st0" d="M4.8,12.8h-2C2.3,12.8,2,12.4,2,12l0,0
	c0-0.4,0.3-0.8,0.8-0.8h2c0.4,0,0.8,0.4,0.8,0.8l0,0C5.5,12.4,5.2,12.8,4.8,12.8z M12.8,19.2v2c0,0.4-0.4,0.8-0.8,0.8l0,0
	c-0.4,0-0.8-0.4-0.8-0.8v-2c0-0.4,0.4-0.8,0.8-0.8l0,0C12.4,18.5,12.8,18.9,12.8,19.2z M17.9,16.4l1.7,1c0.3,0.2,0.8,0.1,1-0.3l0,0
	c0.2-0.4,0.1-0.8-0.3-1l-1.7-1c-0.4-0.2-0.8-0.1-1,0.3l0,0C17.4,15.7,17.5,16.2,17.9,16.4z M15.1,18.6l1,1.7c0.2,0.4,0.7,0.5,1,0.3
	l0,0c0.4-0.2,0.5-0.7,0.3-1l-1-1.7c-0.2-0.4-0.7-0.5-1-0.3l0,0C15,17.8,14.9,18.3,15.1,18.6z M6.1,16.4l-1.7,1
	c-0.3,0.2-0.8,0.1-1-0.3l0,0c-0.2-0.4-0.1-0.8,0.3-1l1.7-1c0.4-0.2,0.8-0.1,1,0.3l0,0C6.6,15.7,6.4,16.2,6.1,16.4z M8.9,18.6l-1,1.7
	c-0.2,0.4-0.7,0.5-1,0.3l0,0c-0.3-0.2-0.5-0.7-0.3-1l1-1.7c0.2-0.4,0.7-0.5,1-0.3l0,0C9,17.8,9.1,18.3,8.9,18.6z M19.2,12.8h2
	c0.4,0,0.8-0.4,0.8-0.8l0,0c0-0.4-0.4-0.8-0.8-0.8h-2c-0.4,0-0.8,0.4-0.8,0.8l0,0C18.5,12.4,18.8,12.8,19.2,12.8z M12.9,4.4
	c0,0,0.1,0.1,0.1,0.1v3.2v0.9L13.7,9c1.1,0.6,1.7,1.8,1.7,3c0,1.9-1.6,3.4-3.4,3.4S8.6,13.9,8.6,12c0-1.3,0.7-2.5,1.9-3.1l0.9-0.4
	V7.6V4.5c0-0.1,0.1-0.1,0.1-0.1H12.9L12.9,4.4L12.9,4.4L12.9,4.4z M12.1,2c-0.4,0-0.8,0.4-0.8,0.8c-0.9,0-1.6,0.8-1.6,1.7v3.1
	C8.1,8.4,7,10.1,7,12c0,2.8,2.2,5,5,5s5-2.2,5-5c0-1.9-1-3.4-2.5-4.3V4.5c0-0.9-0.7-1.7-1.6-1.7C12.9,2.4,12.6,2,12.1,2L12.1,2z"/>
</svg>
