<?xml version="1.0" encoding="UTF-8"?>
<svg width="269px" height="180px" viewBox="0 0 269 180" version="1.1" xmlns="http://www.w3.org/2000/svg" xmlns:xlink="http://www.w3.org/1999/xlink">
    <title>收藏删除弹窗</title>
    <defs>
        <path d="M11.4649575,4.03188657 L10.7813965,10.9829379 C10.6906328,11.9057018 9.94003306,12.6172236 9.02475143,12.6686631 L8.91843935,12.6716435 L4.90517176,12.6716435 C3.97795477,12.6716435 3.19637526,11.9942982 3.05558745,11.0884476 L3.04221462,10.9829379 L2.35807766,4.03188657 L11.4649575,4.03188657 Z M5.75983796,6.76780961 C5.54113935,6.76780961 5.36039841,6.93032567 5.33179366,7.14117926 L5.32785012,7.19979745 L5.32785012,10.6557002 C5.32785012,10.8942805 5.52125766,11.0876881 5.75983796,11.0876881 C5.97853657,11.0876881 6.15927752,10.925172 6.18788227,10.7143184 L6.19182581,10.6557002 L6.19182581,7.19979745 C6.19182581,6.96121715 5.99841826,6.76780961 5.75983796,6.76780961 Z M8.06377315,6.76780961 C7.84507454,6.76780961 7.66433359,6.93032567 7.63572884,7.14117926 L7.6317853,7.19979745 L7.6317853,10.6557002 C7.6317853,10.8942805 7.82519285,11.0876881 8.06377315,11.0876881 C8.28247176,11.0876881 8.4632127,10.925172 8.49181746,10.7143184 L8.495761,10.6557002 L8.495761,7.19979745 C8.495761,6.96121715 8.30235345,6.76780961 8.06377315,6.76780961 Z M6.91180556,1.00797164 C7.81766205,1.00797164 8.56071412,1.70502027 8.63384888,2.59200463 L12.2396557,2.59192708 C12.478236,2.59192708 12.6716435,2.78533463 12.6716435,3.02391493 C12.6716435,3.25397451 12.4918041,3.44203033 12.2650382,3.45516945 L12.2396557,3.45590278 L1.58395544,3.45590278 C1.34537514,3.45590278 1.15196759,3.26249523 1.15196759,3.02391493 C1.15196759,2.79385536 1.33180701,2.60579953 1.55857287,2.59266041 L5.18976223,2.59200463 C5.26289699,1.70502027 6.00594906,1.00797164 6.91180556,1.00797164 Z" id="path-1"></path>
        <path d="M4.33809201,1.5255787 L4.07944732,4.15570622 C4.04510431,4.50486015 3.76109359,4.77408459 3.41477081,4.79354819 L3.37454462,4.79467593 L1.85601094,4.79467593 C1.50517208,4.79467593 1.20943929,4.53838311 1.15616822,4.19562883 L1.15110823,4.15570622 L0.892245602,1.5255787 L4.33809201,1.5255787 Z M2.17939815,2.56079282 C2.09664732,2.56079282 2.02825886,2.62228539 2.01743544,2.70206783 L2.01594329,2.72424769 L2.01594329,4.03188657 C2.01594329,4.1221602 2.08912452,4.19534144 2.17939815,4.19534144 C2.26214897,4.19534144 2.33053744,4.13384887 2.34136086,4.05406643 L2.34285301,4.03188657 L2.34285301,2.72424769 C2.34285301,2.63397406 2.26967178,2.56079282 2.17939815,2.56079282 Z M3.05115741,2.56079282 C2.96840658,2.56079282 2.90001812,2.62228539 2.8891947,2.70206783 L2.88770255,2.72424769 L2.88770255,4.03188657 C2.88770255,4.1221602 2.96088378,4.19534144 3.05115741,4.19534144 C3.13390823,4.19534144 3.2022967,4.13384887 3.21312012,4.05406643 L3.21461227,4.03188657 L3.21461227,2.72424769 C3.21461227,2.63397406 3.14143103,2.56079282 3.05115741,2.56079282 Z M2.61527778,0.381394676 C2.95803429,0.381394676 3.23918913,0.645142803 3.26686174,0.980758508 L4.63122106,0.980729167 C4.72149469,0.980729167 4.79467593,1.0539104 4.79467593,1.14418403 C4.79467593,1.2312336 4.72662858,1.30238986 4.64082528,1.30736141 L4.63122106,1.30763889 L0.599334491,1.30763889 C0.509060864,1.30763889 0.43587963,1.23445765 0.43587963,1.14418403 C0.43587963,1.05713446 0.503926976,0.985978199 0.589730276,0.981006642 L1.96369382,0.980758508 C1.99136643,0.645142803 2.27252126,0.381394676 2.61527778,0.381394676 Z" id="path-3"></path>
        <path d="M3.09863715,1.08969907 L2.91389094,2.96836159 C2.88936022,3.21775725 2.68649542,3.41006042 2.43912201,3.423963 L2.41038901,3.42476852 L1.3257221,3.42476852 C1.07512291,3.42476852 0.863885205,3.24170222 0.825834445,2.99687774 L0.822220168,2.96836159 L0.637318287,1.08969907 L3.09863715,1.08969907 Z M1.55671296,1.82913773 C1.49760523,1.82913773 1.44875633,1.87306099 1.44102531,1.93004845 L1.43995949,1.9458912 L1.43995949,2.87991898 C1.43995949,2.94440014 1.4922318,2.99667245 1.55671296,2.99667245 C1.61582069,2.99667245 1.6646696,2.95274919 1.67240061,2.89576174 L1.67346644,2.87991898 L1.67346644,1.9458912 C1.67346644,1.88141004 1.62119413,1.82913773 1.55671296,1.82913773 Z M2.17939815,1.82913773 C2.12029042,1.82913773 2.07144151,1.87306099 2.0637105,1.93004845 L2.06264468,1.9458912 L2.06264468,2.87991898 C2.06264468,2.94440014 2.11491699,2.99667245 2.17939815,2.99667245 C2.23850588,2.99667245 2.28735479,2.95274919 2.2950858,2.89576174 L2.29615162,2.87991898 L2.29615162,1.9458912 C2.29615162,1.88141004 2.24387931,1.82913773 2.17939815,1.82913773 Z M1.86805556,0.272424769 C2.11288164,0.272424769 2.31370652,0.460816288 2.33347267,0.700541792 L3.30801505,0.700520833 C3.37249621,0.700520833 3.42476852,0.752793143 3.42476852,0.817274306 C3.42476852,0.879452569 3.37616327,0.930278469 3.3148752,0.933829581 L3.30801505,0.934027778 L0.428096065,0.934027778 C0.363614903,0.934027778 0.311342593,0.881755468 0.311342593,0.817274306 C0.311342593,0.755096042 0.35994784,0.704270142 0.421235911,0.70071903 L1.40263844,0.700541792 C1.42240459,0.460816288 1.62322947,0.272424769 1.86805556,0.272424769 Z" id="path-5"></path>
    </defs>
    <g id="收藏删除弹窗" stroke="none" stroke-width="1" fill="none" fill-rule="evenodd">
        <g id="img_delete-photo备份" transform="translate(0.000000, -0.227083)">
            <g id="编组-5" transform="translate(16.635816, 34.559028)">
                <g id="大屏">
                    <g id="编组备份-3">
                        <path d="M192.087026,0 C193.199478,0.00173398538 194.099686,0.802293359 194.099686,1.78817242 L194.099,44.393 L192.484,44.393 L192.48488,2.5261894 C192.48488,2.20121282 192.221435,1.93776725 191.896458,1.93776725 L2.2032282,1.93776725 C1.87825161,1.93776725 1.61480604,2.20121282 1.61480604,2.5261894 L1.61480604,105.316782 C1.61480604,105.641758 1.87825161,105.905204 2.2032282,105.905204 L114.512,105.905 L114.512733,108.841166 L162.666,108.841 L162.666477,109.59885 C162.666477,110.248803 162.139586,110.775694 161.489633,110.775694 L32.7715338,110.775694 C32.1215806,110.775694 31.5946895,110.248803 31.5946895,109.59885 L31.594,108.837 L2.01265975,108.837927 C0.901793546,108.837927 0,108.037043 0,107.049755 L0,1.78817242 C0,0.802293359 0.899963855,0.00173398538 2.01265975,0 L192.087026,0 Z" id="形状结合" fill="#505259"></path>
                        <path d="M191.896458,1.93776725 C192.221435,1.93776725 192.48488,2.20121282 192.48488,2.5261894 L192.48488,2.5261894 L192.484806,44.3927672 L114.512733,44.393249 L114.511806,105.904767 L2.2032282,105.905204 C1.91074927,105.905204 1.66811047,105.691813 1.62250749,105.412227 L1.61480604,105.316782 L1.61480604,2.5261894 C1.61480604,2.20121282 1.87825161,1.93776725 2.2032282,1.93776725 L2.2032282,1.93776725 Z" id="形状结合" fill="#FFFFFF" opacity="0.1"></path>
                    </g>
                    <g id="编组-2" transform="translate(11.198211, 19.690887)">
                        <rect id="矩形备份-19" fill-opacity="0.2" fill="#596080" x="29.1416667" y="0" width="26.1527778" height="26.1527778" rx="1.47412008"></rect>
                        <rect id="矩形备份-25" fill-opacity="0.2" fill="#596080" x="29.1416667" y="29.1416667" width="26.1527778" height="26.1527778" rx="1.47412008"></rect>
                        <path d="M88.8991201,0 L112.103658,0 C112.917792,-3.71598602e-16 113.577778,0.659986042 113.577778,1.47412008 L113.577778,23.4048864 L113.577778,23.4048864 L103.956383,24.3733144 C103.377458,24.4315854 102.886972,24.8249415 102.704368,25.3773963 L102.44808,26.1527778 L102.44808,26.1527778 L88.8991201,26.1527778 C88.084986,26.1527778 87.425,25.4927917 87.425,24.6786577 L87.425,1.47412008 C87.425,0.659986042 88.084986,5.93643207e-16 88.8991201,0 Z" id="矩形备份-21" fill-opacity="0.2" fill="#596080"></path>
                        <rect id="矩形备份-26" fill-opacity="0.2" fill="#596080" x="87.425" y="29.1416667" width="15.5795833" height="26.1527778" rx="1.47412008"></rect>
                        <rect id="矩形备份-20" fill-opacity="0.2" fill="#596080" x="58.2833333" y="0" width="26.1527778" height="26.1527778" rx="1.47412008"></rect>
                        <rect id="矩形备份-27" fill-opacity="0.2" fill="#596080" x="58.2833333" y="29.1416667" width="26.1527778" height="26.1527778" rx="1.47412008"></rect>
                        <rect id="矩形备份-22" fill-opacity="0.2" fill="#596080" x="116.566667" y="0" width="26.1527778" height="24.378125" rx="1.47412008"></rect>
                        <rect id="矩形备份-24" fill-opacity="0.2" fill="#596080" x="145.708333" y="0" width="26.1527778" height="24.378125" rx="1.47412008"></rect>
                        <rect id="矩形备份-23" fill="#2E88E6" opacity="0.400000006" x="0" y="0" width="26.1527778" height="26.1527778" rx="1.47412008"></rect>
                        <rect id="矩形备份-28" fill-opacity="0.2" fill="#596080" x="0" y="29.1416667" width="26.1527778" height="26.1527778" rx="1.47412008"></rect>
                        <g id="ic/gallery/public/delete" transform="translate(6.164583, 6.164583)">
                            <mask id="mask-2" fill="white">
                                <use xlink:href="#path-1"></use>
                            </mask>
                            <g id="形状" fill-rule="nonzero"></g>
                            <g id="编组" mask="url(#mask-2)" fill="#FFFFFF">
                                <g id="colour/white/90">
                                    <rect id="矩形" x="0" y="0" width="13.8236111" height="13.8236111"></rect>
                                </g>
                            </g>
                        </g>
                    </g>
                </g>
                <g id="Pad" transform="translate(165.414838, 76.656362) rotate(-270.000000) translate(-165.414838, -76.656362) translate(131.233797, 23.632687)">
                    <path d="M4.30842981,-0.0041051408 L4.30800427,2.18942052 C3.99352313,2.2521278 3.77171317,2.34395982 3.5490199,2.46305748 C3.0943059,2.70624118 2.7374437,3.06310339 2.49425999,3.51781739 C2.26728853,3.94221712 2.13934368,4.36340877 2.12329312,5.42893536 L2.12157108,5.66736074 L2.12157108,100.348788 C2.12157108,101.592586 2.25107628,102.043617 2.49425999,102.498331 C2.7374437,102.953045 3.0943059,103.309908 3.5490199,103.553091 C3.97341963,103.780063 4.39461128,103.908008 5.46013787,103.924058 L5.69856325,103.92578 L62.6631714,103.92578 C63.9069695,103.92578 64.3580008,103.796275 64.8127148,103.553091 C65.2674288,103.309908 65.624291,102.953045 65.8674747,102.498331 C66.0944462,102.073932 66.222391,101.65274 66.2384416,100.587213 L66.2401636,100.348788 L66.2408688,12.5562167 C66.9293952,12.1872436 67.4698443,11.6463196 67.8383072,10.9573539 C68.1081687,10.4527567 68.2857756,9.9511482 68.3617349,8.97984367 L68.3617347,100.681863 C68.3617347,102.54756 68.1674769,103.224107 67.8027013,103.906178 C67.4379258,104.588249 66.9026324,105.123542 66.2205614,105.488318 C65.5384905,105.853093 64.8619436,106.047351 62.9962464,106.047351 L5.36548826,106.047351 C3.4997911,106.047351 2.82324423,105.853093 2.14117324,105.488318 C1.45910224,105.123542 0.923808932,104.588249 0.559033371,103.906178 C0.194257811,103.224107 -1.79481135e-16,102.54756 3.08902304e-16,100.681863 L1.44514765e-16,5.33428575 C-8.39672403e-17,3.46858859 0.194257811,2.79204172 0.559033371,2.10997072 C0.923808932,1.42789973 1.45910224,0.892606419 2.14117324,0.527830859 C2.67551457,0.242061987 3.20646557,0.0609452189 4.30842981,-0.0041051408 Z" id="形状结合" fill="#505259"></path>
                    <path d="M4.10955694,2.21455933 L4.10984238,7.79954701 C4.10984238,9.68689959 4.30635497,10.3712992 4.67536453,11.0612871 C5.0443741,11.751275 5.58588063,12.2927816 6.27586852,12.6617911 C6.96585641,13.0308007 7.65025606,13.2273133 9.53760864,13.2273133 L9.53760864,13.2273133 L63.0611551,13.2273133 C64.9485077,13.2273133 65.6329073,13.0308007 66.3228952,12.6617911 L66.2227332,12.7133166 L66.2233257,100.33195 C66.2233257,101.575748 66.0938205,102.02678 65.8506368,102.481494 C65.6074531,102.936208 65.2505909,103.29307 64.7958769,103.536253 C64.3411629,103.779437 63.8901317,103.908942 62.6463336,103.908942 L5.68172539,103.908942 C4.43792728,103.908942 3.98689603,103.779437 3.53218203,103.536253 C3.07746804,103.29307 2.72060583,102.936208 2.47742212,102.481494 C2.23423842,102.02678 2.10473321,101.575748 2.10473321,100.33195 L2.10473321,5.65052287 C2.10473321,4.40672477 2.23423842,3.95569352 2.47742212,3.50097952 C2.72060583,3.04626552 3.07746804,2.68940332 3.53218203,2.44621961 C3.70946636,2.35140692 3.88619088,2.27387417 4.10955694,2.21455933 Z" id="形状结合" fill="#FFFFFF" opacity="0.1"></path>
                    <g id="编组-4" transform="translate(23.186831, 58.339754) rotate(-90.000000) translate(-23.186831, -58.339754) translate(-22.391139, 48.252254)">
                        <rect id="矩形备份-52" fill="#2E88E6" opacity="0.400000006" x="0" y="5.76271448e-14" width="9.90069444" height="9.90069444"></rect>
                        <rect id="矩形备份-70" fill="#596080" opacity="0.2" x="0" y="10.2743056" width="9.90069444" height="9.90069444"></rect>
                        <g id="ic/gallery/public/delete" transform="translate(2.335069, 2.335069)">
                            <mask id="mask-4" fill="white">
                                <use xlink:href="#path-3"></use>
                            </mask>
                            <g id="形状" fill-rule="nonzero"></g>
                            <g id="编组" mask="url(#mask-4)" fill="#FFFFFF">
                                <g id="colour/white/90">
                                    <rect id="矩形" x="0" y="0" width="5.23055556" height="5.23055556"></rect>
                                </g>
                            </g>
                        </g>
                        <rect id="矩形备份-57" fill="#596080" opacity="0.2" x="30.8229167" y="4.32203586e-14" width="9.90069444" height="9.90069444"></rect>
                        <rect id="矩形备份-66" fill="#596080" opacity="0.2" x="71.9201389" y="1.44067862e-14" width="9.90069444" height="9.90069444"></rect>
                        <rect id="矩形备份-54" fill="#596080" opacity="0.2" x="10.2743056" y="5.76271448e-14" width="9.90069444" height="9.90069444"></rect>
                        <rect id="矩形备份-72" fill="#596080" opacity="0.2" x="10.2743056" y="10.2743056" width="9.90069444" height="9.90069444"></rect>
                        <rect id="矩形备份-67" fill="#596080" opacity="0.2" x="51.3715278" y="1.44067862e-14" width="9.90069444" height="9.90069444"></rect>
                        <rect id="矩形备份-59" fill="#596080" opacity="0.2" x="41.0972222" y="4.32203586e-14" width="9.90069444" height="9.90069444"></rect>
                        <rect id="矩形备份-68" fill="#596080" opacity="0.2" x="82.1944444" y="0" width="8.9614966" height="9.90069444"></rect>
                        <rect id="矩形备份-53" fill="#596080" opacity="0.2" x="20.5486111" y="4.32203586e-14" width="9.90069444" height="9.90069444"></rect>
                        <rect id="矩形备份-69" fill="#596080" opacity="0.2" x="61.6458333" y="1.44067862e-14" width="9.90069444" height="9.90069444"></rect>
                    </g>
                </g>
                <g id="编组-8备份-2" transform="translate(205.192503, 46.589512)">
                    <path d="M25.0908653,8.26133861e-16 C26.9782179,-4.80007564e-16 27.6626175,0.196512589 28.3526054,0.565522152 C29.0425933,0.934531714 29.5840998,1.47603825 29.9531094,2.16602614 C30.322119,2.85601403 30.5186316,3.54041368 30.5186316,5.42776625 L30.5186316,58.9419911 C30.5186316,60.8293437 30.322119,61.5137433 29.9531094,62.2037312 C29.5840998,62.8937191 29.0425933,63.4352256 28.3526054,63.8042352 C27.6626175,64.1732448 26.9782179,64.3697574 25.0908653,64.3697574 L5.42776625,64.3697574 C3.54041368,64.3697574 2.85601403,64.1732448 2.16602614,63.8042352 C1.47603825,63.4352256 0.934531714,62.8937191 0.565522152,62.2037312 C0.196512589,61.5137433 8.75286985e-16,60.8293437 -1.50644338e-15,58.9419911 L-3.07224901e-16,5.42776625 C1.78506515e-16,3.54041368 0.196512589,2.85601403 0.565522152,2.16602614 C0.934531714,1.47603825 1.47603825,0.934531714 2.16602614,0.565522152 C2.85601403,0.196512589 3.54041368,3.90861165e-16 5.42776625,-6.72705323e-16 L25.0908653,8.26133861e-16 Z M24.8984193,1.28739515 L5.62021222,1.28739515 C3.89013903,1.28739515 3.26277268,1.46753169 2.63028378,1.80579045 C1.99779488,2.14404922 1.50141389,2.64043021 1.16315513,3.27291911 C0.824896362,3.90540801 0.644759822,4.53277435 0.644759822,6.26284755 L0.644759822,6.26284755 L0.644759822,57.5347342 C0.644759822,59.2648074 0.824896362,59.8921737 1.16315513,60.5246626 C1.50141389,61.1571515 1.99779488,61.6535325 2.63028378,61.9917913 C3.26277268,62.3300501 3.89013903,62.5101866 5.62021222,62.5101866 L5.62021222,62.5101866 L24.8984193,62.5101866 C26.6284925,62.5101866 27.2558589,62.3300501 27.8883478,61.9917913 C28.5208367,61.6535325 29.0172177,61.1571515 29.3554764,60.5246626 C29.6937352,59.8921737 29.8738717,59.2648074 29.8738717,57.5347342 L29.8738717,57.5347342 L29.8738717,6.26284755 C29.8738717,4.53277435 29.6937352,3.90540801 29.3554764,3.27291911 C29.0172177,2.64043021 28.5208367,2.14404922 27.8883478,1.80579045 C27.2558589,1.46753169 26.6284925,1.28739515 24.8984193,1.28739515 L24.8984193,1.28739515 Z" id="形状结合" fill="#505259"></path>
                    <path d="M5.62021222,1.28739515 L24.8984193,1.28739515 C26.6284925,1.28739515 27.2558589,1.46753169 27.8883478,1.80579045 C28.5208367,2.14404922 29.0172177,2.64043021 29.3554764,3.27291911 C29.6937352,3.90540801 29.8738717,4.53277435 29.8738717,6.26284755 L29.8738717,57.5347342 C29.8738717,59.2648074 29.6937352,59.8921737 29.3554764,60.5246626 C29.0172177,61.1571515 28.5208367,61.6535325 27.8883478,61.9917913 C27.2558589,62.3300501 26.6284925,62.5101866 24.8984193,62.5101866 L5.62021222,62.5101866 C3.89013903,62.5101866 3.26277268,62.3300501 2.63028378,61.9917913 C1.99779488,61.6535325 1.50141389,61.1571515 1.16315513,60.5246626 C0.824896362,59.8921737 0.644759822,59.2648074 0.644759822,57.5347342 L0.644759822,6.26284755 C0.644759822,4.53277435 0.824896362,3.90540801 1.16315513,3.27291911 C1.50141389,2.64043021 1.99779488,2.14404922 2.63028378,1.80579045 C3.26277268,1.46753169 3.89013903,1.28739515 5.62021222,1.28739515 Z" id="矩形" fill="#FFFFFF" opacity="0.1"></path>
                    <rect id="矩形备份-52" fill="#2E88E6" opacity="0.400000006" x="0.644759822" y="11.2268077" width="7.09861111" height="7.09861111"></rect>
                    <rect id="矩形备份-55" fill="#596080" opacity="0.2" x="15.4023987" y="11.2268077" width="7.09861111" height="7.09861111"></rect>
                    <rect id="矩形备份-58" fill="#596080" opacity="0.2" x="8.02357927" y="18.6056271" width="7.09861111" height="7.09861111"></rect>
                    <rect id="矩形备份-63" fill="#596080" opacity="0.2" x="8.02357927" y="25.9844466" width="7.09861111" height="7.09861111"></rect>
                    <g id="ic/gallery/public/delete" transform="translate(2.326010, 12.908058)">
                        <mask id="mask-6" fill="white">
                            <use xlink:href="#path-5"></use>
                        </mask>
                        <g id="形状" fill-rule="nonzero"></g>
                        <g id="编组" mask="url(#mask-6)" fill="#FFFFFF">
                            <g id="colour/white/90">
                                <rect id="矩形" x="0" y="0" width="3.73611111" height="3.73611111"></rect>
                            </g>
                        </g>
                    </g>
                    <rect id="矩形备份-54" fill="#596080" opacity="0.2" x="8.02357927" y="11.2268077" width="7.09861111" height="7.09861111"></rect>
                    <rect id="矩形备份-60" fill="#596080" opacity="0.2" x="0.644759822" y="18.6056271" width="7.09861111" height="7.09861111"></rect>
                    <rect id="矩形备份-64" fill="#596080" opacity="0.2" x="0.644759822" y="25.9844466" width="7.09861111" height="7.09861111"></rect>
                    <rect id="矩形备份-56" fill="#596080" opacity="0.2" x="22.7812182" y="11.2268077" width="7.09861111" height="7.09861111"></rect>
                    <rect id="矩形备份-61" fill="#596080" opacity="0.2" x="15.4023987" y="18.6056271" width="7.09861111" height="7.09861111"></rect>
                    <rect id="矩形备份-65" fill="#596080" opacity="0.2" x="15.4023987" y="25.9844466" width="7.09861111" height="7.09861111"></rect>
                    <rect id="矩形备份-78" fill="#596080" opacity="0.2" x="22.7812182" y="25.9844466" width="7.09861111" height="7.09861111"></rect>
                    <rect id="矩形备份-62" fill="#596080" opacity="0.2" x="22.7752606" y="18.6056271" width="7.09861111" height="7.09861111"></rect>
                </g>
            </g>
        </g>
    </g>
</svg>