<?xml version="1.0" encoding="utf-8"?>
<!-- Generator: Adobe Illustrator 26.3.1, SVG Export Plug-In . SVG Version: 6.00 Build 0)  -->
<svg version="1.1" id="图层_1" xmlns="http://www.w3.org/2000/svg" xmlns:xlink="http://www.w3.org/1999/xlink" x="0px" y="0px"
	 viewBox="0 0 24 24" style="enable-background:new 0 0 24 24;" xml:space="preserve">
<style type="text/css">
	.st0{fill-rule:evenodd;clip-rule:evenodd;}
</style>
<path id="path-1_00000152969488726643622590000015349575628489931677_" class="st0" d="M9.2,16.8c0-0.4,0.3-0.8,0.8-0.8
	s0.8,0.3,0.8,0.8v3.8c0,0.4-0.3,0.8-0.8,0.8s-0.8-0.3-0.8-0.8V16.8z M5,16.8C5,16.3,5.3,16,5.8,16s0.8,0.3,0.8,0.8v3.8
	c0,0.4-0.3,0.8-0.8,0.8S5,20.9,5,20.5V16.8z M17.8,16.8c0-0.4,0.3-0.8,0.8-0.8s0.8,0.3,0.8,0.8v3.8c0,0.4-0.3,0.8-0.8,0.8
	s-0.8-0.3-0.8-0.8V16.8z M13.5,16.8c0-0.4,0.3-0.8,0.8-0.8s0.8,0.3,0.8,0.8v3.8c0,0.4-0.3,0.8-0.8,0.8s-0.8-0.3-0.8-0.8V16.8z
	 M9.2,3.8C9.2,3.3,9.6,3,10,3s0.8,0.3,0.8,0.8v3.8c0,0.4-0.3,0.8-0.8,0.8S9.2,7.9,9.2,7.5V3.8z M5,3.8C5,3.3,5.3,3,5.8,3
	s0.8,0.3,0.8,0.8v3.8c0,0.4-0.3,0.8-0.8,0.8S5,7.9,5,7.5V3.8z M17.8,3.8c0-0.4,0.3-0.8,0.8-0.8s0.8,0.3,0.8,0.8v3.8
	c0,0.4-0.3,0.8-0.8,0.8s-0.8-0.3-0.8-0.8V3.8z M13.5,3.8c0-0.4,0.3-0.8,0.8-0.8S15,3.3,15,3.8v3.8c0,0.4-0.3,0.8-0.8,0.8
	s-0.8-0.3-0.8-0.8V3.8z M18.8,11.2c0.4,0,0.7,0.3,0.7,0.7v0c0,0.4-0.3,0.7-0.7,0.7H5.2c-0.4,0-0.7-0.3-0.7-0.7v0
	c0-0.4,0.3-0.7,0.7-0.7H18.8L18.8,11.2z M18.8,9.8H5.2C4,9.8,3,10.8,3,12v0c0,1.2,1,2.2,2.2,2.2h13.5c1.2,0,2.2-1,2.2-2.2v0
	C21,10.8,20,9.8,18.8,9.8L18.8,9.8z"/>
</svg>
