<?xml version="1.0" encoding="UTF-8"?>
<svg width="16px" height="16px" viewBox="0 0 16 16" version="1.1" xmlns="http://www.w3.org/2000/svg" xmlns:xlink="http://www.w3.org/1999/xlink">
    <title>ic_public_picture frame</title>
    <g id="ic_public_picture-frame" stroke="none" stroke-width="1" fill="none" fill-rule="evenodd">
        <g id="编组-2">
            <rect id="矩形" x="0" y="0" width="16" height="16"></rect>
            <g id="编组" transform="translate(0.666667, 1.333333)">
                <path d="M0.5,8.33333333 C0.776142373,8.33333333 1,8.55719093 1,8.83333333 L1,8.83333333 L1,10.6666667 C1,11.5503223 1.68769063,12.2733591 2.55708287,12.3297882 L2.66666667,12.3333333 L4.5,12.3333333 C4.77614237,12.3333333 5,12.5571909 5,12.8333333 C5,13.1094757 4.77614237,13.3333333 4.5,13.3333333 L4.5,13.3333333 L2.66666667,13.3333333 C1.19390733,13.3333333 0,12.139426 0,10.6666667 L0,8.83333333 L0.00456441333,8.76548627 C0.0376726933,8.52143593 0.246869487,8.33333333 0.5,8.33333333 Z M14.1666667,8.33333333 C14.4428091,8.33333333 14.6666667,8.55719093 14.6666667,8.83333333 L14.6666667,8.83333333 L14.6666667,10.6666667 C14.6666667,12.139426 13.4727593,13.3333333 12,13.3333333 L10.1666667,13.3333333 L10.0988196,13.3287689 C9.85476927,13.2956607 9.66666667,13.0864639 9.66666667,12.8333333 C9.66666667,12.5571909 9.89052427,12.3333333 10.1666667,12.3333333 L10.1666667,12.3333333 L12,12.3333333 C12.8836556,12.3333333 13.6066925,11.6456427 13.6631215,10.7762505 L13.6666667,10.6666667 L13.6666667,8.83333333 L13.6712311,8.76548627 C13.7043393,8.52143593 13.9135361,8.33333333 14.1666667,8.33333333 Z M4.5,0 C4.77614237,0 5,0.223857627 5,0.5 C5,0.776142373 4.77614237,1 4.5,1 L4.5,1 L2.66666667,1 C1.78301107,1 1.05997422,1.68769063 1.00354512,2.55708287 L1,2.66666667 L1,4.5 C1,4.77614237 0.776142373,5 0.5,5 C0.223857627,5 0,4.77614237 0,4.5 L0,4.5 L0,2.66666667 C0,1.19390733 1.19390733,0 2.66666667,0 L4.5,0 Z M13.6666667,2.66666667 C13.6666667,1.78301107 12.9789761,1.05997422 12.1095838,1.00354512 L12,1 L10.1666667,1 L10.0988196,0.995435587 C9.85476927,0.962327307 9.66666667,0.753130513 9.66666667,0.5 C9.66666667,0.223857627 9.89052427,0 10.1666667,0 L10.1666667,0 L12,0 C13.4727593,0 14.6666667,1.19390733 14.6666667,2.66666667 L14.6666667,4.5 C14.6666667,4.77614237 14.4428091,5 14.1666667,5 C13.8905243,5 13.6666667,4.77614237 13.6666667,4.5 L13.6666667,4.5 L13.6666667,2.66666667 Z" id="形状结合" fill-opacity="0.86" fill="#FFFFFF" fill-rule="nonzero"></path>
                <rect id="矩形" stroke-opacity="0.86" stroke="#FFFFFF" x="2.5" y="3.16666667" width="9.66666667" height="7" rx="1.33333333"></rect>
            </g>
        </g>
    </g>
</svg>