<?xml version="1.0" encoding="UTF-8"?>
<svg width="16px" height="16px" viewBox="0 0 16 16" version="1.1" xmlns="http://www.w3.org/2000/svg" xmlns:xlink="http://www.w3.org/1999/xlink">
    <title>ic_public_rotate</title>
    <defs>
        <path d="M1.5983379,4.42008687 L1.66794943,4.2985418 L1.66794943,4.2985418 L1.83919647,4.02066038 L1.83919647,4.02066038 L1.95721794,3.84399015 L1.95721794,3.84399015 L2.13441257,3.59784898 L2.13441257,3.59784898 L2.2181972,3.48853282 C2.37880643,3.28299123 2.55013703,3.0862336 2.73134794,2.89910096 L2.82299837,2.80830808 C2.85802735,2.77470277 2.89753517,2.73775645 2.94152182,2.69746911 C3.00298814,2.64117217 3.08331527,2.60994552 3.16666667,2.60994552 C3.33031085,2.60994552 3.46641338,2.72786536 3.49463199,2.88336887 L3.5,2.94328752 L3.5,5.5 C3.49985057,5.66358159 3.38199811,5.7996526 3.22656095,5.82805432 L3.16666667,5.8335014 L2.0465109,5.83399029 C1.79756212,6.5184336 1.66666667,7.24906465 1.66666667,8 C1.66666667,11.4978034 4.50219658,14.3333333 8,14.3333333 C8.45965526,14.3333333 8.91264038,14.2844485 9.35378732,14.1884246 C9.62361157,14.1296923 9.88995928,14.3008161 9.94869159,14.5706404 C10.0074239,14.8404646 9.83630005,15.1068124 9.5664758,15.1655447 C9.05556517,15.2767539 8.53127934,15.3333333 8,15.3333333 C3.94991183,15.3333333 0.666666667,12.0500882 0.666666667,8 C0.666666667,7.25488767 0.778230973,6.52649478 0.991862395,5.83414567 C1.03264983,5.70163917 1.07736293,5.57029485 1.12563668,5.44068404 L1.17901789,5.30178618 L1.17901789,5.30178618 L1.24443997,5.14203669 L1.24443997,5.14203669 L1.33888964,4.92857366 L1.33888964,4.92857366 L1.47185367,4.65577501 L1.47185367,4.65577501 L1.5983379,4.42008687 L1.5983379,4.42008687 Z M8,0.666666667 C12.0500882,0.666666667 15.3333333,3.94991183 15.3333333,8 C15.3333333,8.74511233 15.221769,9.47350522 15.0081376,10.1658543 C14.979857,10.2578357 14.9495519,10.3494891 14.9175083,10.4403222 L14.8470853,10.6312917 L14.8470853,10.6312917 L14.7726986,10.8171551 L14.7726986,10.8171551 L14.6773454,11.0360149 L14.6773454,11.0360149 L14.5794941,11.2423006 L14.5794941,11.2423006 L14.4220916,11.5432233 L14.4220916,11.5432233 L14.3320506,11.7014582 L14.3320506,11.7014582 L14.1913746,11.9317303 L14.1913746,11.9317303 L14.0138985,12.1976331 L14.0138985,12.1976331 L13.8655874,12.402151 L13.8655874,12.402151 L13.7818028,12.5114672 C13.6211936,12.7170088 13.449863,12.9137664 13.2686521,13.100899 L13.1770016,13.1916919 C13.1419727,13.2252972 13.1024648,13.2622436 13.0584782,13.3025309 C12.9970119,13.3588278 12.9166847,13.3900545 12.8333333,13.3900545 C12.6696892,13.3900545 12.5335866,13.2721346 12.505368,13.1166311 L12.5,13.0567125 L12.5,10.5 C12.5001494,10.3364184 12.6180019,10.2003474 12.7734391,10.1719457 L12.8333333,10.1664986 L13.9534891,10.1660097 C14.2024379,9.4815664 14.3333333,8.75093535 14.3333333,8 C14.3333333,4.50219658 11.4978034,1.66666667 8,1.66666667 C7.54034474,1.66666667 7.08735962,1.71555151 6.64621268,1.8115754 C6.37638843,1.8703077 6.11004072,1.69918387 6.05130841,1.42935961 C5.99257611,1.15953536 6.16369995,0.893187645 6.4335242,0.834455343 C6.94443483,0.723246078 7.46872066,0.666666667 8,0.666666667 Z" id="path-1"></path>
    </defs>
    <g id="ic_public_rotate" stroke="none" stroke-width="1" fill="none" fill-rule="evenodd">
        <g id="Public/ic_public_rotate">
            <rect id="矩形" x="0" y="0" width="16" height="16"></rect>
            <mask id="mask-2" fill="white">
                <use xlink:href="#path-1"></use>
            </mask>
            <use id="形状" fill="#FFFFFF" fill-rule="nonzero" xlink:href="#path-1"></use>
        </g>
    </g>
</svg>