<?xml version="1.0" encoding="UTF-8"?>
<svg width="40px" height="40px" viewBox="0 0 40 40" version="1.1" xmlns="http://www.w3.org/2000/svg" xmlns:xlink="http://www.w3.org/1999/xlink">
    <title>icon_gallery_num_9_15</title>
    <g id="icon_gallery_num_9_15" stroke="none" stroke-width="1" fill="none" fill-rule="evenodd">
        <path d="M29.2,1.86666667 C30.3045695,1.86666667 31.2,2.76209717 31.2,3.86666667 L31.2,36.1333333 C31.2,37.2379028 30.3045695,38.1333333 29.2,38.1333333 L10.8,38.1333333 C9.6954305,38.1333333 8.8,37.2379028 8.8,36.1333333 L8.8,3.86666667 C8.8,2.76209717 9.6954305,1.86666667 10.8,1.86666667 L29.2,1.86666667 Z M14.969,33.2046667 L10.3,33.2046667 L10.3,36.1333333 C10.3,36.4094757 10.5238576,36.6333333 10.8,36.6333333 L14.969,36.6326667 L14.969,33.2046667 Z M29.7,28.6956667 L16.469,28.6956667 L16.469,36.6326667 L29.2,36.6333333 C29.4761424,36.6333333 29.7,36.4094757 29.7,36.1333333 L29.7,28.6956667 Z M14.969,21.8956667 L10.3,21.8956667 L10.3,31.7046667 L14.969,31.7046667 L14.969,21.8956667 Z M29.7,16.8286667 L16.469,16.8286667 L16.469,27.1956667 L29.7,27.1956667 L29.7,16.8286667 Z M14.969,11.3626667 L10.3,11.3626667 L10.3,20.3956667 L14.969,20.3956667 L14.969,11.3626667 Z M23.509,11.3626667 L16.469,11.3626667 L16.469,15.3286667 L23.509,15.3286667 L23.509,11.3626667 Z M25.009,15.3286667 L29.7,15.3286667 L29.7,9.76266667 L25.009,9.76266667 L25.009,15.3286667 Z M23.509,9.86266667 L23.509,3.36566667 L10.8,3.36666667 C10.5238576,3.36666667 10.3,3.59052429 10.3,3.86666667 L10.3,9.86266667 L23.509,9.86266667 Z M29.2,3.36666667 L25.009,3.36566667 L25.009,8.26266667 L29.7,8.26266667 L29.7,3.86666667 C29.7,3.59052429 29.4761424,3.36666667 29.2,3.36666667 Z" id="形状结合" fill="#ffffff" fill-rule="nonzero"></path>
    </g>
</svg>