<?xml version="1.0" encoding="UTF-8"?>
<svg width="40px" height="40px" viewBox="0 0 40 40" version="1.1" xmlns="http://www.w3.org/2000/svg" xmlns:xlink="http://www.w3.org/1999/xlink">
    <title>icon_gallery_num_6_5</title>
    <g id="icon_gallery_num_6_5" stroke="none" stroke-width="1" fill="none" fill-rule="evenodd">
        <path d="M34.9333333,32.9333333 C34.9333333,34.0379028 34.0379028,34.9333333 32.9333333,34.9333333 L7.06666667,34.9333333 C5.96209717,34.9333333 5.06666667,34.0379028 5.06666667,32.9333333 L5.06666667,7.06666667 C5.06666667,5.96209717 5.96209717,5.06666667 7.06666667,5.06666667 L32.9333333,5.06666667 C34.0379028,5.06666667 34.9333333,5.96209717 34.9333333,7.06666667 L34.9333333,32.9333333 Z M14.4836667,25.5196667 L6.56566667,25.5196667 L6.56666667,32.9333333 C6.56666667,33.2094757 6.79052429,33.4333333 7.06666667,33.4333333 L14.4836667,33.4326667 L14.4836667,25.5196667 Z M33.4326667,16.0086667 L15.9836667,16.0086667 L15.9836667,33.4326667 L32.9333333,33.4333333 C33.2094757,33.4333333 33.4333333,33.2094757 33.4333333,32.9333333 L33.4326667,16.0086667 Z M14.4836667,16.0086667 L6.56566667,16.0086667 L6.56566667,24.0196667 L14.4836667,24.0196667 L14.4836667,16.0086667 Z M14.4836667,6.56566667 L7.06666667,6.56666667 C6.79052429,6.56666667 6.56666667,6.79052429 6.56666667,7.06666667 L6.56666667,14.5086667 L14.4836667,14.5086667 L14.4836667,6.56566667 Z M23.9946667,6.56666667 L15.9836667,6.56666667 L15.9836667,14.5086667 L23.9946667,14.5086667 L23.9946667,6.56666667 Z M32.9333333,6.56666667 L25.4946667,6.56666667 L25.4946667,14.5086667 L33.4326667,14.5086667 L33.4333333,7.06666667 C33.4333333,6.79052429 33.2094757,6.56666667 32.9333333,6.56666667 Z" id="形状结合" fill="#ffffff" fill-rule="nonzero" transform="translate(20.000000, 20.000000) rotate(-180.000000) translate(-20.000000, -20.000000) "></path>
    </g>
</svg>