<?xml version="1.0" encoding="utf-8"?>
<!-- Generator: Adobe Illustrator 26.3.1, SVG Export Plug-In . SVG Version: 6.00 Build 0)  -->
<svg version="1.1" id="图层_1" xmlns="http://www.w3.org/2000/svg" xmlns:xlink="http://www.w3.org/1999/xlink" x="0px" y="0px"
	 viewBox="0 0 24 24" style="enable-background:new 0 0 24 24;" xml:space="preserve">
<style type="text/css">
	.st0{fill-rule:evenodd;clip-rule:evenodd;}
</style>
<path id="path-1_00000073721246313805440790000005732937909699607732_" class="st0" d="M20.5,4C21.3,4,22,4.7,22,5.5v13
	c0,0.9-0.7,1.5-1.5,1.5h-17C2.7,20,2,19.3,2,18.5v-13C2,4.7,2.7,4,3.5,4H20.5z M20.5,5.5h-17c0,0,0,0,0,0v13c0,0,0,0,0,0h17
	c0,0,0,0,0,0L20.5,5.5z M8.1,8.3c0.2,0.1,0.3,0.4,0.1,0.6c-0.7,0.9-1,2-1,3.1c0,1.1,0.3,2.1,0.9,3c0.1,0.2,0.1,0.5-0.2,0.6
	c-0.2,0.1-0.5,0.1-0.7-0.2c-0.7-1-1.1-2.2-1.1-3.5c0-1.3,0.4-2.6,1.2-3.6C7.6,8.2,7.9,8.2,8.1,8.3z M16.7,8.4
	c0.8,1.1,1.2,2.3,1.2,3.6c0,1.2-0.4,2.4-1.1,3.5c-0.1,0.2-0.5,0.3-0.7,0.1c-0.2-0.1-0.3-0.4-0.2-0.6c0.6-0.9,1-1.9,1-3
	c0-1.1-0.4-2.2-1-3.1c-0.2-0.2-0.1-0.5,0.1-0.6C16.2,8.2,16.5,8.2,16.7,8.4z M12,10c1.1,0,2,0.9,2,2s-0.9,2-2,2s-2-0.9-2-2
	C10,10.9,10.9,10,12,10z"/>
</svg>
