<?xml version="1.0" encoding="utf-8"?>
<!-- Generator: Adobe Illustrator 26.3.1, SVG Export Plug-In . SVG Version: 6.00 Build 0)  -->
<svg version="1.1" id="图层_1" xmlns="http://www.w3.org/2000/svg" xmlns:xlink="http://www.w3.org/1999/xlink" x="0px" y="0px"
	 viewBox="0 0 24 24" style="enable-background:new 0 0 24 24;" xml:space="preserve">
<style type="text/css">
	.st0{fill-rule:evenodd;clip-rule:evenodd;}
</style>
<path id="path-1_00000092454389369767684530000012669575602289013684_" class="st0" d="M13.2,19.3l1.2,0.5c0.1,0.1,0.2,0.2,0.1,0.3
	c0,0.1-0.1,0.1-0.1,0.1l-2.8,1.4c-0.1,0.1-0.3,0-0.3-0.1c0,0,0,0,0,0l-1-3c0-0.1,0-0.3,0.2-0.3c0.1,0,0.1,0,0.2,0l1.2,0.5l1.4-3.4
	l-3.1-3.1H8.8c-0.9,0-1.2-0.9-0.9-1.6l0.2-0.5L3.2,5.2c-0.3-0.3-0.3-0.8,0-1.1c0.3-0.3,0.8-0.3,1.1,0l15.9,16c0.3,0.3,0.3,0.8,0,1.1
	c-0.3,0.3-0.8,0.3-1.1,0l-4.7-4.7L13.2,19.3L13.2,19.3z M14.5,12.3h-0.8l-1.5-1.5h3c0.8,0,1.3,0.9,0.9,1.6L15.5,14l-1.2-1.2
	L14.5,12.3z M10.9,3.4c0.2-0.4,0.7-0.5,1-0.3c0.4,0.2,0.5,0.7,0.3,1l-1.9,4.7L9.1,7.6L10.9,3.4z"/>
</svg>
