<?xml version="1.0" encoding="UTF-8"?>
<svg width="24px" height="24px" viewBox="0 0 24 24" version="1.1" xmlns="http://www.w3.org/2000/svg" xmlns:xlink="http://www.w3.org/1999/xlink">
    <title>checkbox_unselected_dark</title>
    <g id="checkbox_unselected_dark" stroke="none" stroke-width="1" fill="none" fill-rule="evenodd">
        <rect id="矩形" x="0" y="0" width="24" height="24"></rect>
        <g id="编组" transform="translate(2.000000, 2.000000)">
            <path d="M0,3.99922997 C0,1.79051625 1.79246765,0 3.99922997,0 L16.00077,0 C18.2094838,0 20,1.79246765 20,3.99922997 L20,16.00077 C20,18.2094838 18.2075324,20 16.00077,20 L3.99922997,20 C1.79051625,20 0,18.2075324 0,16.00077 L0,3.99922997 Z" id="Rectangle-2375-Copy" fill-opacity="0.2" fill="#000000"></path>
            <path d="M16.00077,0 C18.2094838,0 20,1.79246765 20,3.99922997 L20,16.00077 C20,18.2094838 18.2075324,20 16.00077,20 L3.99922997,20 C1.79051625,20 0,18.2075324 0,16.00077 L0,3.99922997 C0,1.79051625 1.79246765,0 3.99922997,0 L16.00077,0 Z M15.7403358,1 L4.25966421,1 C2.45776843,1 1,2.45940138 1,4.25966421 L1,4.25966421 L1,15.7403358 C1,17.5422316 2.45940138,19 4.25966421,19 L4.25966421,19 L15.7403358,19 C17.5422316,19 19,17.5405986 19,15.7403358 L19,15.7403358 L19,4.25966421 C19,2.45776843 17.5405986,1 15.7403358,1 L15.7403358,1 Z" id="Rectangle-2375-Copy-2" fill-opacity="0.4" fill="#FFFFFF"></path>
        </g>
    </g>
</svg>