<?xml version="1.0" encoding="UTF-8"?>
<svg width="24px" height="24px" viewBox="0 0 24 24" version="1.1" xmlns="http://www.w3.org/2000/svg" xmlns:xlink="http://www.w3.org/1999/xlink">
    <title>radio_unselected_dark</title>
    <g id="radio_unselected_dark" stroke="none" stroke-width="1" fill="none" fill-rule="evenodd">
        <g id="30%" transform="translate(2.000000, 2.000000)">
            <circle id="Oval-21" fill-opacity="0.2" fill="#000000" cx="10" cy="10" r="10"></circle>
            <path d="M10,0 C15.5228475,0 20,4.4771525 20,10 C20,15.5228475 15.5228475,20 10,20 C4.4771525,20 0,15.5228475 0,10 C0,4.4771525 4.4771525,0 10,0 Z M10,1 C5.02943725,1 1,5.02943725 1,10 C1,14.9705627 5.02943725,19 10,19 C14.9705627,19 19,14.9705627 19,10 C19,5.02943725 14.9705627,1 10,1 Z" id="Oval-22" fill-opacity="0.4" fill="#FFFFFF"></path>
        </g>
        <rect id="矩形备份" x="0" y="0" width="24" height="24"></rect>
    </g>
</svg>