<?xml version="1.0" encoding="UTF-8"?>
<svg width="24px" height="24px" viewBox="0 0 24 24" version="1.1" xmlns="http://www.w3.org/2000/svg" xmlns:xlink="http://www.w3.org/1999/xlink">
    <title>收起</title>
    <g id="收起" stroke="none" stroke-width="1" fill="none" fill-rule="evenodd">
        <g id="newicon" transform="translate(12.000000, 12.000000) scale(-1, 1) translate(-12.000000, -12.000000) ">
            <g id="编组-9" transform="translate(2.000000, 3.000000)" fill="#000000">
                <path d="M14.7001107,11 L20.2999151,11 C20.6865613,11 21,11.3198306 21,11.7143617 C21,11.8765728 20.9458969,12.0339542 20.8465896,12.1606199 L18.0466874,15.7318702 C17.8051514,16.0399472 17.3645933,16.0898964 17.0626733,15.8434348 C17.0223031,15.81048 16.9856346,15.7730637 16.9533384,15.7318702 L14.1534362,12.1606199 C13.9119002,11.8525429 13.9608511,11.4030005 14.2627711,11.1565389 C14.3869053,11.0552064 14.5411414,11 14.7001107,11 Z" id="矩形备份" transform="translate(17.500000, 13.500000) rotate(-90.000000) translate(-17.500000, -13.500000) "></path>
                <path d="M19.25,0 C19.6642136,0 20,0.335786438 20,0.75 C20,1.16421356 19.6642136,1.5 19.25,1.5 L0.75,1.5 C0.335786438,1.5 0,1.16421356 0,0.75 C0,0.335786438 0.335786438,0 0.75,0 L19.25,0 Z" id="路径" fill-rule="nonzero"></path>
                <path d="M19.2307692,5.25 C19.6556037,5.25 20,5.58578644 20,6 C20,6.41421356 19.6556037,6.75 19.2307692,6.75 L0.769230769,6.75 C0.344396346,6.75 0,6.41421356 0,6 C0,5.58578644 0.344396346,5.25 0.769230769,5.25 L19.2307692,5.25 Z" id="路径" fill-rule="nonzero"></path>
                <path d="M11.25,10.25 C11.6642136,10.25 12,10.5857864 12,11 C12,11.4142136 11.6642136,11.75 11.25,11.75 L0.75,11.75 C0.335786438,11.75 0,11.4142136 0,11 C0,10.5857864 0.335786438,10.25 0.75,10.25 L11.25,10.25 Z" id="路径" fill-rule="nonzero"></path>
                <path d="M11.25,15.25 C11.6642136,15.25 12,15.5857864 12,16 C12,16.4142136 11.6642136,16.75 11.25,16.75 L0.75,16.75 C0.335786438,16.75 0,16.4142136 0,16 C0,15.5857864 0.335786438,15.25 0.75,15.25 L11.25,15.25 Z" id="路径备份" fill-rule="nonzero"></path>
            </g>
            <rect id="矩形" x="0" y="0" width="24" height="24"></rect>
        </g>
    </g>
</svg>