<?xml version="1.0" encoding="utf-8"?>
<!-- Generator: Adobe Illustrator 26.3.1, SVG Export Plug-In . SVG Version: 6.00 Build 0)  -->
<svg version="1.1" id="图层_1" xmlns="http://www.w3.org/2000/svg" xmlns:xlink="http://www.w3.org/1999/xlink" x="0px" y="0px"
	 viewBox="0 0 24 24" style="enable-background:new 0 0 24 24;" xml:space="preserve">
<style type="text/css">
	.st0{fill-rule:evenodd;clip-rule:evenodd;}
</style>
<path id="path-1_00000032627838972518360130000015352098546316717232_" class="st0" d="M14,12c0,1.1-0.9,2-2,2s-2-0.9-2-2
	c0-1.1,0.9-2,2-2S14,10.9,14,12 M20.5,5.5C20.5,5.5,20.5,5.5,20.5,5.5l0,13c0,0,0,0,0,0h-17c0,0,0,0,0,0v-13c0,0,0,0,0,0H20.5
	L20.5,5.5z M3.5,4C2.7,4,2,4.7,2,5.5v13C2,19.3,2.7,20,3.5,20h17c0.9,0,1.5-0.7,1.5-1.5v-13C22,4.7,21.3,4,20.5,4H3.5z"/>
</svg>
