<?xml version="1.0" encoding="utf-8"?>
<!-- Generator: Adobe Illustrator 26.3.1, SVG Export Plug-In . SVG Version: 6.00 Build 0)  -->
<svg version="1.1" id="图层_1" xmlns="http://www.w3.org/2000/svg" xmlns:xlink="http://www.w3.org/1999/xlink" x="0px" y="0px"
	 viewBox="0 0 24 24" style="enable-background:new 0 0 24 24;" xml:space="preserve">
<style type="text/css">
	.st0{fill-rule:evenodd;clip-rule:evenodd;}
</style>
<path id="path-1_00000180349596117820176470000013649543937854285725_" class="st0" d="M11.2,19.6c0-0.4,0.3-0.8,0.7-0.8
	c0.4,0,0.8,0.3,0.8,0.7l0,1.7c0,0.4-0.3,0.8-0.7,0.8c-0.4,0-0.8-0.3-0.8-0.7L11.2,19.6z M11.3,2.8C11.3,2.4,11.6,2,12,2
	c0.4,0,0.7,0.3,0.7,0.8l0,1.7c0,0.4-0.3,0.7-0.8,0.7c-0.4,0-0.7-0.3-0.7-0.8L11.3,2.8z M3.6,8.1C3.3,7.8,3.1,7.4,3.3,7
	c0.2-0.4,0.7-0.5,1-0.3l1.4,0.8c0.4,0.2,0.5,0.7,0.3,1C5.9,9,5.4,9.1,5.1,8.9L3.6,8.1z M18.1,16.4c-0.4-0.2-0.5-0.7-0.3-1
	c0.2-0.4,0.7-0.5,1-0.3l1.5,0.8c0.4,0.2,0.5,0.7,0.3,1c-0.2,0.4-0.7,0.5-1,0.3L18.1,16.4z M7.9,20.3c-0.2,0.4-0.7,0.5-1,0.3
	c-0.4-0.2-0.5-0.7-0.3-1l0.8-1.4c0.2-0.4,0.7-0.5,1-0.3s0.5,0.7,0.3,1L7.9,20.3z M16.3,5.9c-0.2,0.4-0.7,0.5-1,0.3
	c-0.4-0.2-0.5-0.7-0.3-1l0.9-1.5c0.2-0.4,0.7-0.5,1-0.3c0.4,0.2,0.5,0.7,0.3,1L16.3,5.9z M4.3,17.1c-0.4,0.2-0.8,0.1-1-0.3
	c-0.2-0.4-0.1-0.8,0.3-1L5,15c0.4-0.2,0.8-0.1,1,0.3s0.1,0.8-0.3,1L4.3,17.1z M18.8,8.7c-0.4,0.2-0.8,0.1-1-0.3s-0.1-0.8,0.3-1
	l1.5-0.9c0.4-0.2,0.8-0.1,1,0.3s0.1,0.8-0.3,1L18.8,8.7z M6.7,4.4C6.5,4,6.6,3.6,7,3.4c0.4-0.2,0.8-0.1,1,0.3l0.8,1.4
	c0.2,0.4,0.1,0.8-0.3,1c-0.4,0.2-0.8,0.1-1-0.3L6.7,4.4z M15.1,18.9c-0.2-0.4-0.1-0.8,0.3-1c0.4-0.2,0.8-0.1,1,0.3l0.8,1.5
	c0.2,0.4,0.1,0.8-0.3,1c-0.4,0.2-0.8,0.1-1-0.3L15.1,18.9z M2.8,12.8C2.3,12.8,2,12.4,2,12c0-0.4,0.3-0.8,0.8-0.8h1.6
	c0.4,0,0.8,0.3,0.8,0.8c0,0.4-0.3,0.8-0.8,0.8H2.8z M19.5,12.8c-0.4,0-0.8-0.3-0.8-0.7c0-0.4,0.3-0.8,0.7-0.8l1.7,0
	c0.4,0,0.8,0.3,0.8,0.7c0,0.4-0.3,0.8-0.7,0.8L19.5,12.8z M12,8.5c1.9,0,3.5,1.6,3.5,3.5s-1.6,3.5-3.5,3.5S8.5,13.9,8.5,12
	S10.1,8.5,12,8.5L12,8.5z M12,7c-2.8,0-5,2.2-5,5s2.2,5,5,5s5-2.2,5-5S14.8,7,12,7L12,7z"/>
</svg>
