<svg width="24.000000" height="24.000000" viewBox="0 0 24 24" fill="none" xmlns="http://www.w3.org/2000/svg" xmlns:xlink="http://www.w3.org/1999/xlink">
	<desc>
			Created with Pixso.
	</desc>
	<defs/>
	<path id="合并" d="M21.51 20.59C21.05 20.8633 20.55 21 20.01 21L4 21Q3.52761 21 3.09836 20.8639L3.09817 20.8639Q2.78241 20.7637 2.49 20.59C2.02333 20.3167 1.65667 19.9533 1.39 19.5C1.13 19.0467 1 18.5467 1 18L1 6Q1 5.45175 1.17434 4.96608L1.17434 4.96608L1.17435 4.96606L1.17435 4.96605L1.17435 4.96605L1.17436 4.96603L1.17436 4.96603Q1.26077 4.72533 1.39 4.5Q1.54616 4.23453 1.74804 4.01021L1.74807 4.01018L1.74807 4.01018L1.74809 4.01015Q2.06332 3.65991 2.49 3.41Q2.78241 3.23625 3.09817 3.13612Q3.5275 3 4 3L20.01 3C20.55 3 21.05 3.13667 21.51 3.41C21.9633 3.68333 22.3267 4.04666 22.6 4.5C22.7062 4.67607 22.7917 4.85916 22.8566 5.04932Q23.01 5.49847 23.01 6L23.01 18C23.01 18.5467 22.8733 19.0467 22.6 19.5C22.3267 19.9533 21.9633 20.3167 21.51 20.59ZM3.11 8.5C3.046 8.5 2.9852 8.4904 2.9276 8.47121C2.8412 8.4424 2.762 8.392 2.69 8.32001C2.57 8.2 2.51 8.06 2.51 7.89999L2.51 6Q2.51 5.69435 2.61451 5.43001Q2.72198 5.15816 2.94 4.92999Q3.13805 4.72734 3.37854 4.61803L3.37856 4.61801L3.37856 4.61801L3.37859 4.618Q3.66021 4.49001 4 4.49001L5.01 4.49001Q5.12405 4.49001 5.22041 4.5313Q5.30147 4.56604 5.37 4.63C5.41264 4.67569 5.44555 4.72556 5.4687 4.77959Q5.51 4.87595 5.51 4.99001L5.51 7.89999C5.51 8.06 5.45333 8.2 5.34 8.32001C5.29215 8.37067 5.23895 8.41064 5.1804 8.43991L5.18037 8.43993Q5.0602 8.5 4.91 8.5L3.11 8.5ZM7 4.49001L11.26 4.49001L11.26 6L12.76 6L12.76 4.49001L17.03 4.49001L17.03 19.49L12.76 19.49L12.76 18L11.26 18L11.26 19.49L7 19.49L7 4.49001ZM19.12 8.5C18.9999 8.5 18.8961 8.47327 18.8086 8.41982C18.765 8.39319 18.7255 8.35991 18.69 8.32001C18.6511 8.27881 18.6189 8.23409 18.5933 8.18584C18.5444 8.09349 18.52 7.98822 18.52 7.87L18.52 4.99001C18.52 4.85001 18.5667 4.73 18.66 4.63C18.76 4.53667 18.88 4.49001 19.02 4.49001L20.03 4.49001Q20.3483 4.49001 20.6191 4.60333L20.6192 4.60335L20.6194 4.60342Q20.876 4.71085 21.09 4.92C21.2161 5.04607 21.3144 5.18501 21.385 5.33687C21.475 5.53032 21.52 5.74469 21.52 5.98L21.52 7.87C21.52 8.05 21.46 8.2 21.34 8.32001Q21.232 8.42799 21.1024 8.47119Q21.016 8.5 20.92 8.5L19.12 8.5ZM12.76 8L11.26 8L11.26 11L12.76 11L12.76 8ZM2.92758 13.9612Q2.79799 13.918 2.69 13.81C2.57 13.69 2.51 13.55 2.51 13.39L2.51 10.58C2.51 10.42 2.57 10.28 2.69 10.16Q2.798 10.052 2.9276 10.0088L2.92762 10.0088L2.92765 10.0088Q3.01403 9.98 3.11 9.98L4.91 9.98C4.974 9.98 5.0348 9.98959 5.0924 10.0088C5.1788 10.0376 5.258 10.088 5.33 10.16C5.45 10.28 5.51 10.42 5.51 10.58L5.51 13.39C5.51 13.55 5.45333 13.69 5.34 13.81C5.29215 13.8607 5.23895 13.9006 5.1804 13.9299C5.10028 13.97 5.01015 13.99 4.91 13.99L3.11 13.99Q3.01406 13.99 2.92771 13.9612L2.92767 13.9612L2.9276 13.9612L2.92758 13.9612ZM19.12 13.99C18.96 13.99 18.82 13.93 18.7 13.81C18.58 13.69 18.52 13.55 18.52 13.39L18.52 10.58C18.52 10.42 18.58 10.28 18.7 10.16C18.82 10.04 18.96 9.98 19.12 9.98L20.92 9.98Q21.016 9.98 21.1024 10.0088Q21.232 10.052 21.34 10.16C21.46 10.28 21.52 10.42 21.52 10.58L21.52 13.39C21.52 13.55 21.46 13.69 21.34 13.81Q21.232 13.918 21.1024 13.9612Q21.016 13.99 20.92 13.99L19.12 13.99ZM11.26 13L12.76 13L12.76 16L11.26 16L11.26 13ZM5.0924 15.5088L5.09248 15.5088Q5.22204 15.552 5.33 15.66C5.45 15.78 5.51 15.92 5.51 16.08L5.51 18.98C5.51 19.1267 5.46333 19.2467 5.37 19.34C5.31828 19.3917 5.2612 19.4301 5.19878 19.455Q5.11138 19.49 5.01 19.49L4 19.49Q3.76 19.49 3.54401 19.418Q3.22 19.31 2.95 19.04C2.78513 18.8751 2.6666 18.6934 2.59439 18.4949C2.53813 18.3401 2.51 18.1752 2.51 18L2.51 16.08C2.51 15.92 2.57 15.78 2.69 15.66C2.762 15.588 2.8412 15.5376 2.9276 15.5088C2.9852 15.4896 3.046 15.48 3.11 15.48L4.91 15.48Q5.00599 15.48 5.09237 15.5088L5.0924 15.5088ZM21.1024 15.5088Q21.232 15.552 21.34 15.66C21.46 15.78 21.52 15.92 21.52 16.08L21.52 18C21.52 18.4133 21.37 18.7667 21.07 19.06Q20.856 19.2692 20.5994 19.3766Q20.3284 19.49 20.01 19.49L19 19.49C18.8733 19.49 18.76 19.44 18.66 19.34C18.5667 19.2467 18.52 19.1267 18.52 18.98L18.52 16.08C18.52 15.92 18.58 15.78 18.7 15.66C18.82 15.54 18.96 15.48 19.12 15.48L20.92 15.48Q21.0159 15.48 21.1022 15.5087L21.1024 15.5088L21.1024 15.5088Z" clip-rule="evenodd" fill="#000000" fill-opacity="1.000000" fill-rule="evenodd"/>
</svg>
