<?xml version="1.0" encoding="utf-8"?>
<!-- Generator: Adobe Illustrator 26.3.1, SVG Export Plug-In . SVG Version: 6.00 Build 0)  -->
<svg version="1.1" id="图层_1" xmlns="http://www.w3.org/2000/svg" xmlns:xlink="http://www.w3.org/1999/xlink" x="0px" y="0px"
	 viewBox="0 0 24 24" style="enable-background:new 0 0 24 24;" xml:space="preserve">
<style type="text/css">
	.st0{fill-rule:evenodd;clip-rule:evenodd;}
</style>
<path id="path-1_00000108991090310701645970000010825047570509290634_" class="st0" d="M2,16.1h20c0.4,0,0.8,0.3,0.8,0.8
	c0,0.4-0.3,0.8-0.8,0.8H2c-0.4,0-0.8-0.3-0.8-0.8C1.3,16.4,1.6,16.1,2,16.1z M3.2,11.8l-0.6,1.7H1l2.7-7h1.5l2.7,7H6.3l-0.6-1.7H3.2
	L3.2,11.8z M5.2,10.6L4.4,8.4l-0.8,2.2H5.2z M11.8,9.1l-1.2,4.4H9.2l-2-7h1.6L9.9,11l1.2-4.5h1.4l1.2,4.5l1.1-4.5h1.6l-2,7H13
	L11.8,9.1z M22.3,10.3c0.2,0.3,0.4,0.7,0.4,1.2c0,0.7-0.3,1.3-0.8,1.6c-0.4,0.3-1,0.4-1.8,0.4h-3.2v-7h3.2c0.7,0,1.3,0.2,1.7,0.5
	c0.4,0.3,0.6,0.8,0.6,1.3c0,0.4-0.1,0.8-0.3,1.1c-0.1,0.1-0.2,0.3-0.4,0.4C21.9,9.9,22.1,10.1,22.3,10.3z M18.3,9.3h1.5
	c0.4,0,0.7-0.1,0.9-0.2c0.1-0.1,0.2-0.3,0.2-0.6c0-0.3-0.1-0.4-0.2-0.5c-0.2-0.1-0.4-0.2-0.8-0.2h-1.5V9.3z M18.3,12.2h1.6
	c0.4,0,0.7-0.1,0.9-0.2c0.2-0.1,0.3-0.3,0.3-0.6c0-0.3-0.1-0.5-0.2-0.7c-0.2-0.1-0.5-0.2-0.9-0.2h-1.6V12.2z"/>
</svg>
