<?xml version="1.0" encoding="UTF-8"?>
<svg viewBox="0 0 24 24" version="1.1" xmlns="http://www.w3.org/2000/svg" xmlns:xlink="http://www.w3.org/1999/xlink">
    <title>ic/gallery/public/delete_filled</title>
    <defs>
        <path d="M20.6383702,5.79268557 L19.3983918,21.1608471 C19.3145746,22.1996696 18.4470688,23 17.4048703,23 L6.59854694,23 C5.55493075,23 4.68674458,22.1975586 4.60473209,21.1571698 L3.39356975,5.79268557 L20.6383702,5.79268557 Z M14.25,9 C13.8357864,9 13.5,9.33578644 13.5,9.75 L13.5,9.75 L13.5,18.75 C13.5,19.1642136 13.8357864,19.5 14.25,19.5 C14.6642136,19.5 15,19.1642136 15,18.75 L15,18.75 L15,9.75 C15,9.33578644 14.6642136,9 14.25,9 Z M9.75,9 C9.33578644,9 9,9.33578644 9,9.75 L9,9.75 L9,18.75 C9,19.1642136 9.33578644,19.5 9.75,19.5 C10.1642136,19.5 10.5,19.1642136 10.5,18.75 L10.5,18.75 L10.5,9.75 C10.5,9.33578644 10.1642136,9 9.75,9 Z M14.8875915,1 C15.3464591,1 15.7464423,1.31229737 15.857734,1.75746437 L16.1683679,3 L22.125,3 C22.6082492,3 23,3.39175084 23,3.875 C23,4.35824916 22.6082492,4.75 22.125,4.75 L1.875,4.75 C1.39175084,4.75 1,4.35824916 1,3.875 C1,3.39175084 1.39175084,3 1.875,3 L8.13675777,3 L8.44739167,1.75746437 C8.55868342,1.31229737 8.95866653,1 9.41753417,1 L14.8875915,1 Z" id="path-1"></path>
    </defs>
    <g id="ic/gallery/public/delete_filled" stroke="none" stroke-width="1" fill="none" fill-rule="evenodd">
        <mask id="mask-2" fill="white">
            <use xlink:href="#path-1"></use>
        </mask>
        <use id="Combined-Shape" fill="#000000" fill-rule="nonzero" xlink:href="#path-1"></use>
        <g id="编组" mask="url(#mask-2)" fill="#FFFFFF" fill-opacity="0.1">
            <g id="矩形">
                <rect x="0" y="0" width="24" height="24"></rect>
            </g>
        </g>
    </g>
</svg>