<?xml version="1.0" encoding="UTF-8"?>
<svg  viewBox="0 0 24 24" version="1.1" xmlns="http://www.w3.org/2000/svg" xmlns:xlink="http://www.w3.org/1999/xlink">
    <title>ic/gallery/public/Favorite</title>
    <defs>
        <path d="M7.35836536,2.50181467 C9.15143227,2.48453983 10.8155872,3.2160273 12.0118702,4.45236006 C13.3652411,3.0980467 15.3414829,2.31631154 17.327771,2.54426435 C20.2118742,2.87555191 22.547104,5.17350758 22.9391249,8.06853824 C23.1029061,9.2773556 22.9335795,10.4708339 22.4628565,11.5515567 C21.8646016,12.9245041 20.3466151,15.1908788 18.3691645,17.1050798 L17.7914539,17.6587626 L17.1715939,18.2421886 C16.4650951,18.9017166 15.7217716,19.5785791 14.9693398,20.2511676 L13.706191,21.3691331 L12.6771787,22.2616112 C12.3034399,22.5824043 11.7560722,22.5813715 11.3835091,22.2591703 L10.1615451,21.1894202 C9.96127492,21.0121267 9.75200303,20.8260529 9.53500642,20.6321926 C8.54263435,19.7456278 7.55010281,18.8407803 6.59893759,17.9498568 L5.76590027,17.1628717 C3.65339449,15.1489419 2.09678325,12.8881543 1.52164132,11.5506676 C1.20083801,10.8027821 1.02450754,9.98703375 1.00223618,9.14658595 C0.908051997,5.56358323 3.80129507,2.53544045 7.35836536,2.50181467 Z M7.37254456,4.00174765 C4.65796728,4.02740916 2.42945174,6.35797158 2.5017098,9.10685081 C2.51898586,9.75879244 2.6547939,10.3873054 2.89963661,10.9581063 C3.43693721,12.2075933 4.85769348,14.161869 6.53347521,15.8175926 L6.92737393,16.1975459 C8.03000761,17.2455902 9.24730884,18.3637557 10.5343551,19.5135764 L11.3401352,20.2292282 L12.032,20.837 L12.8902246,20.0895147 L13.2218073,19.797356 C14.0919701,19.0286582 14.9227743,18.2795737 15.6931812,17.5680031 L16.4584335,16.8547459 L16.7586251,16.5709829 C16.9549269,16.3845977 17.1440497,16.2033467 17.3258806,16.0273235 C18.990403,14.4160415 20.4875196,12.3298032 21.0876443,10.952565 C21.4519406,10.1161849 21.5785718,9.19890627 21.4526908,8.26981872 C21.1526055,6.05372187 19.3581539,4.28735119 17.1567487,4.03448292 C15.6898092,3.86613222 14.1510816,4.43371807 13.0728994,5.51265101 C12.4803441,6.10561893 11.5168173,6.09785556 10.9338937,5.49541651 C10.0594605,4.5917086 8.88120746,4.0582251 7.62502473,4.0057861 L7.37254456,4.00174765 Z" id="path-1"></path>
    </defs>
    <g id="ic/gallery/public/Favorite" stroke="none" stroke-width="1" fill="none" fill-rule="evenodd">
        <mask id="mask-2" fill="white">
            <use xlink:href="#path-1"></use>
        </mask>
        <use id="路径" fill="#000000" fill-rule="nonzero" xlink:href="#path-1"></use>
        <g id="编组" mask="url(#mask-2)" fill="#FFFFFF" fill-opacity="0.1">
            <g id="矩形">
                <rect x="0" y="0" width="24" height="24"></rect>
            </g>
        </g>
    </g>
</svg>