<?xml version="1.0" encoding="UTF-8"?>
<svg  viewBox="0 0 24 24" version="1.1" xmlns="http://www.w3.org/2000/svg" xmlns:xlink="http://www.w3.org/1999/xlink">
    <title>ic/gallery/public/Favorite_filled</title>
    <defs>
        <path d="M17.7914539,17.6587626 C17.5904759,17.8495879 17.383704,18.0441803 17.1715939,18.2421886 C16.2295954,19.1215593 15.222131,20.0317467 14.2148985,20.9215312 C13.8625288,21.2328129 13.5352411,21.5194137 13.2413199,21.7748533 C13.138256,21.8644235 13.0466569,21.9437587 12.9675598,22.0120469 C12.919778,22.0532992 12.8865798,22.0818749 12.8690031,22.0969616 L12.6771787,22.2616112 C12.3034399,22.5824043 11.7560722,22.5813715 11.3835091,22.2591703 L11.1923151,22.0938213 C11.1707487,22.0751702 11.1299305,22.0397568 11.0711401,21.9885778 C10.973765,21.9038094 10.8609832,21.8052736 10.7340736,21.6939661 C10.372094,21.3764876 9.96899964,21.0199132 9.53500642,20.6321926 C8.29454133,19.5239866 7.05382708,18.3872139 5.8939687,17.284778 C5.8511147,17.2440456 5.8084318,17.2034166 5.76590027,17.1628717 C3.65339449,15.1489419 2.09678325,12.8881543 1.52164132,11.5506676 C1.20083801,10.8027821 1.02450754,9.98703375 1.00223618,9.14658595 C0.908051997,5.56358323 3.80129507,2.53544045 7.35836536,2.50181467 C9.15143227,2.48453983 10.8155872,3.2160273 12.0118702,4.45236006 C13.3652411,3.0980467 15.3414829,2.31631154 17.327771,2.54426435 C20.2118742,2.87555191 22.547104,5.17350758 22.9391249,8.06853824 C23.1029061,9.2773556 22.9335795,10.4708339 22.4628565,11.5515567 C21.8646016,12.9245041 20.3466151,15.1908788 18.3691645,17.1050798 C18.1828583,17.2854354 17.9901614,17.4700931 17.7914539,17.6587626 Z" id="path-1"></path>
    </defs>
    <g id="ic/gallery/public/Favorite_filled" stroke="none" stroke-width="1" fill="none" fill-rule="evenodd">
        <rect id="矩形" fill-opacity="0" fill="#000000" x="0" y="0" width="24" height="24"></rect>
        <mask id="mask-2" fill="white">
            <use xlink:href="#path-1"></use>
        </mask>
        <use id="路径" fill="#ffffff" fill-rule="nonzero" xlink:href="#path-1"></use>
        <g id="编组" mask="url(#mask-2)" fill="#FFFFFF" fill-opacity="0">
            <g id="矩形">
                <rect x="0" y="0" width="24" height="24"></rect>
            </g>
        </g>
    </g>
</svg>