<?xml version="1.0" encoding="UTF-8"?>
<svg viewBox="0 0 24 24" version="1.1" xmlns="http://www.w3.org/2000/svg" xmlns:xlink="http://www.w3.org/1999/xlink">
    <title>ic/gallery/public/pause</title>
    <defs>
        <path d="M10.1785714,8.05357143 C10.4152649,8.05357143 10.6071429,8.24544939 10.6071429,8.48214286 L10.6071429,15.5178571 C10.6071429,15.7545506 10.4152649,15.9464286 10.1785714,15.9464286 L9.64285714,15.9464286 C9.40616368,15.9464286 9.21428571,15.7545506 9.21428571,15.5178571 L9.21428571,8.48214286 C9.21428571,8.24544939 9.40616368,8.05357143 9.64285714,8.05357143 L10.1785714,8.05357143 Z M14.3571429,8.05357143 C14.5938363,8.05357143 14.7857143,8.24544939 14.7857143,8.48214286 L14.7857143,15.5178571 C14.7857143,15.7545506 14.5938363,15.9464286 14.3571429,15.9464286 L13.8214286,15.9464286 C13.5847351,15.9464286 13.3928571,15.7545506 13.3928571,15.5178571 L13.3928571,8.48214286 C13.3928571,8.24544939 13.5847351,8.05357143 13.8214286,8.05357143 L14.3571429,8.05357143 Z" id="path-1"></path>
    </defs>
    <g id="ic/gallery/public/pause" stroke="none" stroke-width="1" fill="none" fill-rule="evenodd">
        <path d="M0.428571429,12 C0.428571429,18.3909 5.6091,23.5714286 12,23.5714286 C18.3909,23.5714286 23.5714286,18.3909 23.5714286,12 C23.5714286,5.6091 18.3909,0.428571429 12,0.428571429 C5.6091,0.428571429 0.428571429,5.6091 0.428571429,12 Z" id="Shape" fill-opacity="0.5" fill="#000000"></path>
        <path d="M0.428571429,12 C0.428571429,18.3909 5.6091,23.5714286 12,23.5714286 C18.3909,23.5714286 23.5714286,18.3909 23.5714286,12 C23.5714286,5.6091 18.3909,0.428571429 12,0.428571429 C5.6091,0.428571429 0.428571429,5.6091 0.428571429,12 Z M0,12 C0,5.37240642 5.37240642,0 12,0 C18.6275936,0 24,5.37240642 24,12 C24,18.6275936 18.6275936,24 12,24 C5.37240642,24 0,18.6275936 0,12 Z" id="Shape" fill-opacity="0.3" fill="#FFFFFF" fill-rule="nonzero"></path>
        <mask id="mask-2" fill="white">
            <use xlink:href="#path-1"></use>
        </mask>
        <use id="Combined-Shape" fill="#FFFFFF" xlink:href="#path-1"></use>
    </g>
</svg>