<?xml version="1.0" encoding="UTF-8"?>
<svg viewBox="0 0 24 24" version="1.1" xmlns="http://www.w3.org/2000/svg" xmlns:xlink="http://www.w3.org/1999/xlink">
    <title>ic/gallery/public/rename_filled</title>
    <defs>
        <path d="M11.5,3 C11.7761424,3 12,3.22385763 12,3.5 C12,3.77614237 11.7761424,4 11.5,4 L10.5,4 L10.5,4 L10.5,20 L11.5,20 C11.7761424,20 12,20.2238576 12,20.5 C12,20.7761424 11.7761424,21 11.5,21 L8.5,21 C8.22385763,21 8,20.7761424 8,20.5 C8,20.2238576 8.22385763,20 8.5,20 L9.5,20 L9.5,20 L9.5,4 L8.5,4 C8.22385763,4 8,3.77614237 8,3.5 C8,3.22385763 8.22385763,3 8.5,3 L11.5,3 Z M20,5.5 C21.6568542,5.5 23,6.84314575 23,8.5 L23,15.5 C23,17.1568542 21.6568542,18.5 20,18.5 L11.9783377,18.5 L11.9783377,17.5 L20,17.5 C21.1045695,17.5 22,16.6045695 22,15.5 L22,8.5 C22,7.3954305 21.1045695,6.5 20,6.5 L11.9783377,6.5 L11.9783377,5.5 L20,5.5 Z M7.95837936,5.5 L7.95837936,6.5 L4,6.5 C2.8954305,6.5 2,7.3954305 2,8.5 L2,15.5 C2,16.6045695 2.8954305,17.5 4,17.5 L8,17.5 L8,18.5 L4,18.5 C2.34314575,18.5 1,17.1568542 1,15.5 L1,8.5 C1,6.84314575 2.34314575,5.5 4,5.5 L7.95837936,5.5 Z M8,7.5 L8,16.5 L4,16.5 C3.44771525,16.5 3,16.0522847 3,15.5 L3,8.5 C3,7.94771525 3.44771525,7.5 4,7.5 L8,7.5 Z M20.5,7.5 C20.7761424,7.5 21,7.72385763 21,8 L21,16 C21,16.2761424 20.7761424,16.5 20.5,16.5 L12,16.5 L12,7.5 L20.5,7.5 Z" id="path-1"></path>
    </defs>
    <g id="ic/gallery/public/rename_filled" stroke="none" stroke-width="1" fill="none" fill-rule="evenodd">
        <mask id="mask-2" fill="white">
            <use xlink:href="#path-1"></use>
        </mask>
        <use id="Combined-Shape" fill="#000000" fill-rule="nonzero" xlink:href="#path-1"></use>
        <g id="编组" mask="url(#mask-2)" fill="#FFFFFF" fill-opacity="0.1">
            <g id="矩形">
                <rect x="0" y="0" width="24" height="24"></rect>
            </g>
        </g>
    </g>
</svg>