<?xml version="1.0" encoding="UTF-8"?>
<svg  viewBox="0 0 24 24" version="1.1" xmlns="http://www.w3.org/2000/svg" xmlns:xlink="http://www.w3.org/1999/xlink">
    <title>ic/gallery/public/hsqh</title>
    <defs>
        <path d="M11.9748572,2.03495035 C13.0794267,2.03495035 13.9748572,2.93038085 13.9748572,4.03495035 L13.9734766,8.25895035 L13.9748572,8.27379069 L13.9747064,8.28898332 L13.9747064,8.28898332 L13.9744766,8.29795035 C13.9611077,8.70158094 13.6306105,9.02379069 13.2248572,9.02379069 C12.8451614,9.02379069 12.5313662,8.74163681 12.4817038,8.37556125 L12.4754766,8.28895035 L12.4764766,8.29795035 L12.4744766,8.29795035 L12.4748572,4.03495035 C12.4748572,3.78949046 12.297982,3.58534198 12.0647328,3.54300602 L11.9748572,3.53495035 L3.18047655,3.53495035 C2.93501666,3.53495035 2.73086818,3.71182551 2.68853222,3.94507472 L2.68047655,4.03495035 L2.68047655,20.0349503 C2.68047655,20.2804102 2.85735171,20.4845587 3.09060092,20.5268947 L3.18047655,20.5349503 L3.37947655,20.5349503 C3.77975524,20.5510642 4.09966493,20.8806478 4.09966493,21.2849503 C4.09966493,21.6561928 3.82993464,21.9644363 3.47575883,22.0243962 L12.1795968,22.024599 C12.1122813,22.0314439 12.0439788,22.0349503 11.9748572,22.0349503 L3.18047655,22.0349503 C2.07590705,22.0349503 1.18047655,21.1395198 1.18047655,20.0349503 L1.18047655,4.03495035 C1.18047655,2.93038085 2.07590705,2.03495035 3.18047655,2.03495035 L11.9748572,2.03495035 Z M20.9528666,10 C22.0574361,10 22.9528666,10.8954305 22.9528666,12 L22.9528666,20 C22.9528666,21.1045695 22.0574361,22 20.9528666,22 L6.99684781,22 C5.89227831,22 4.99684781,21.1045695 4.99684781,20 L4.99684781,12 C4.99684781,10.8954305 5.89227831,10 6.99684781,10 L20.9528666,10 Z M20.9528666,11.5 L6.99684781,11.5 C6.75138792,11.5 6.54723944,11.6768752 6.50490348,11.9101244 L6.49684781,12 L6.49684781,20 C6.49684781,20.2454599 6.67372297,20.4496084 6.90697218,20.4919443 L6.99684781,20.5 L20.9528666,20.5 C21.1983265,20.5 21.402475,20.3231248 21.4448109,20.0898756 L21.4528666,20 L21.4528666,12 C21.4528666,11.7545401 21.2759914,11.5503916 21.0427422,11.5080557 L20.9528666,11.5 Z M18.322142,2.08320364 C20.8722071,2.08320364 22.9394432,4.15043983 22.9394432,6.7005049 L22.9394432,7.9656777 C22.9394432,8.37989126 22.6036568,8.7156777 22.1894432,8.7156777 C21.7752297,8.7156777 21.4394432,8.37989126 21.4394432,7.9656777 L21.4394432,6.7005049 C21.4394432,4.97886696 20.0437799,3.58320364 18.322142,3.58320364 L17.4167002,3.58320364 C17.0024866,3.58320364 16.6667002,3.2474172 16.6667002,2.83320364 C16.6667002,2.41899008 17.0024866,2.08320364 17.4167002,2.08320364 L18.322142,2.08320364 Z" id="path-1"></path>
    </defs>
    <g id="ic/gallery/public/hsqh" stroke="none" stroke-width="1" fill="none" fill-rule="evenodd">
        <mask id="mask-2" fill="white">
            <use xlink:href="#path-1"></use>
        </mask>
        <use id="形状结合" fill="#000000" fill-rule="nonzero" xlink:href="#path-1"></use>
        <g id="编组" mask="url(#mask-2)" fill="#FFFFFF" fill-opacity="0.1">
            <g id="矩形">
                <rect x="0" y="0" width="24" height="24"></rect>
            </g>
        </g>
    </g>
</svg>