<?xml version="1.0" encoding="UTF-8"?>
<svg  viewBox="0 0 24 24" version="1.1" xmlns="http://www.w3.org/2000/svg" xmlns:xlink="http://www.w3.org/1999/xlink">
    <title>ic/gallery/public/shared album_filled</title>
    <defs>
        <path d="M14.2380952,12.4761905 C16.8680226,12.4761905 19,14.6081679 19,17.2380952 L19,20 C19,21.1045695 18.1045695,22 17,22 L4,22 C2.8954305,22 2,21.1045695 2,20 L2,17.2380952 C2,14.6081679 4.13197738,12.4761905 6.76190476,12.4761905 L14.2380952,12.4761905 Z M17.8831041,12.5190991 C20.207511,12.8338262 22,14.8266316 22,17.2380952 L22,20 C22,21.1045695 21.1045695,22 20,22 L19,22 C19.5128358,22 19.9355072,21.6139598 19.9932723,21.1166211 L20,21 L20,16.7380952 C20,15.0111497 19.1680637,13.4785134 17.8831041,12.5190991 Z M10.5001379,2 C13.1080991,2 15.2222222,4.13416503 15.2222222,6.76684963 C15.2222222,9.39953422 13.1080991,11.5336993 10.5001379,11.5336993 C7.89190093,11.5336993 5.77777778,9.39953422 5.77777778,6.76684963 C5.77777778,4.13416503 7.89190093,2 10.5001379,2 Z M14.0350987,2.03020829 C16.3912729,2.29853042 18.2222222,4.31681706 18.2222222,6.76684963 C18.2222222,9.14767452 16.4932519,11.1208006 14.2336439,11.4765352 L14.0258252,11.4752083 L14.1736916,11.3706062 C15.5851419,10.3225177 16.5,8.64309715 16.5,6.75 C16.5,4.79576165 15.5250934,3.06922494 14.0350987,2.03020829 Z" id="path-1"></path>
    </defs>
    <g id="ic/gallery/public/shared-album_filled" stroke="none" stroke-width="1" fill="none" fill-rule="evenodd">
        <rect id="矩形" fill-opacity="0" fill="#000000" x="0" y="0" width="24" height="24"></rect>
        <mask id="mask-2" fill="white">
            <use xlink:href="#path-1"></use>
        </mask>
        <use id="Combined-Shape" fill="#ffffff" xlink:href="#path-1"></use>
        <g id="编组" mask="url(#mask-2)" fill="#FFFFFF" fill-opacity="0">
            <g id="矩形">
                <rect x="0" y="0" width="24" height="24"></rect>
            </g>
        </g>
    </g>
</svg>