<?xml version="1.0" encoding="UTF-8"?>
<svg  viewBox="0 0 24 24" version="1.1" xmlns="http://www.w3.org/2000/svg" xmlns:xlink="http://www.w3.org/1999/xlink">
    <title>ic/gallery/public/sharegroup</title>
    <defs>
        <path d="M18.838684,12.3308265 C20.7648094,13.3056826 22,15.208018 22,17.3236516 L22,21.25 C22,21.6642136 21.6642136,22 21.25,22 C20.8357864,22 20.5,21.6642136 20.5,21.25 L20.5,17.3236516 C20.5,15.7884645 19.5951288,14.3948589 18.161316,13.6691735 C17.7917417,13.4821235 17.6437765,13.0308903 17.8308265,12.661316 C18.0178765,12.2917417 18.4691097,12.1437765 18.838684,12.3308265 Z M2.73612396,22 L2.736,21.999 L2.64822944,21.9931534 C2.28215388,21.943491 2,21.6296958 2,21.25 L2,17.75 C2,14.5743627 4.57436269,12 7.75,12 L13.25,12 C16.4256373,12 19,14.5743627 19,17.75 L19,21.25 C19,21.6642136 18.6642136,22 18.25,22 L18.237,21.999 L18.2379887,22 L2.73612396,22 Z M13.25,13.5 L7.75,13.5 C5.40278981,13.5 3.5,15.4027898 3.5,17.75 L3.5,20.5 L17.5,20.5 L17.5,17.75 C17.5,15.4027898 15.5972102,13.5 13.25,13.5 Z M10.5005779,1.75 C13.1241281,1.75 15.2509221,3.87661097 15.2509221,6.5 C15.2509221,9.12338903 13.1241281,11.25 10.5005779,11.25 C7.87683687,11.25 5.75,9.12343194 5.75,6.5 C5.75,3.87656806 7.87683687,1.75 10.5005779,1.75 Z M15.2963854,2.10135036 C15.3498868,2.12320854 15.4029671,2.1460403 15.4556023,2.16983224 C17.1430555,2.9325876 18.2509221,4.61547988 18.2509221,6.5 C18.2509221,8.43350837 17.0847314,10.1516409 15.3308688,10.8844022 C14.9486716,11.0440836 14.5093921,10.863699 14.3497107,10.4815017 C14.1900292,10.0993045 14.3704139,9.66002508 14.7526111,9.50034364 C15.9529526,8.99884271 16.7509221,7.82320533 16.7509221,6.5 C16.7509221,5.21022903 15.9929531,4.05884472 14.8377649,3.53668154 C14.801829,3.52043794 14.7655938,3.50485187 14.7290754,3.48993211 C14.3456291,3.33327377 14.1617812,2.89543247 14.3184395,2.5119862 C14.4750979,2.12853994 14.9129392,1.94469201 15.2963854,2.10135036 Z M10.5005779,3.25 C8.70522156,3.25 7.25,4.70503763 7.25,6.5 C7.25,8.29496237 8.70522156,9.75 10.5005779,9.75 C12.2957299,9.75 13.7509221,8.29493301 13.7509221,6.5 C13.7509221,4.70506699 12.2957299,3.25 10.5005779,3.25 Z" id="path-1"></path>
    </defs>
    <g id="ic/gallery/public/sharegroup" stroke="none" stroke-width="1" fill="none" fill-rule="evenodd">
        <mask id="mask-2" fill="white">
            <use xlink:href="#path-1"></use>
        </mask>
        <use id="形状结合" fill="#000000" fill-rule="nonzero" xlink:href="#path-1"></use>
        <g id="编组" mask="url(#mask-2)" fill="#FFFFFF" fill-opacity="0.1">
            <g id="矩形">
                <rect x="0" y="0" width="24" height="24"></rect>
            </g>
        </g>
    </g>
</svg>